<?xml version="1.0" encoding="utf-8"?>
<!-- Generator: Adobe Illustrator 24.3.0, SVG Export Plug-In . SVG Version: 6.00 Build 0)  -->
<svg version="1.1" id="Camada_1" xmlns="http://www.w3.org/2000/svg" xmlns:xlink="http://www.w3.org/1999/xlink" x="0px" y="0px"
	 viewBox="0 0 973.4 975" style="enable-background:new 0 0 973.4 975;" xml:space="preserve">
<style type="text/css">
	.st0{fill:#00C8FF;}
</style>
<path class="st0" d="M634.2,632.7c-13,2.3-36.7,0-52.9-5.3c-7.6-2.5-20-8.2-27.1-12.5c-7.6-4.6-7.3-5.4-7.3,26.5
	c0,14.6,0.3,27.4,0.8,28.5c1.8,4.7,20.8,11.7,41.4,15.3c11,1.9,31.1,2.8,42.7,2.1c28.6-2.1,50.3-10.8,66.4-26.7
	c9.2-9.1,13.7-16.2,17.8-27.6c3.8-10.7,5-18.4,5-31.2c0-33.7-14.5-55.9-50.6-77.3c-2.4-1.5-11.5-6.3-20.2-10.9
	c-25.5-13.3-37.2-21.8-41.6-30.2c-2.6-4.8-2.6-14.5,0-19.5c3.7-7,9.2-11.1,19-14.2c4-1.2,7.6-1.5,17.5-1.4
	c19.5,0.1,35.9,3.6,51.4,10.9c4.5,2.1,8.9,3.6,10,3.4l2-0.3l0.3-26.8c0.2-25.6,0.1-26.9-1.5-28.9c-3-3.9-22.5-8.9-41.8-10.6
	c-11.2-1.1-31.3-1-39.7,0c-8.9,1.2-21.2,4.5-29.4,8c-33.5,14.5-52.1,45.7-48.7,81.5c2,20.9,9,35.6,23.6,49.5
	c11.2,10.7,19.9,16.5,44.1,29.1c31.8,16.5,43.7,27.2,44.8,40.4C661.5,618.9,651.8,629.5,634.2,632.7z"/>
<path class="st0" d="M0,0v975h973.4V0H0z M879.8,481.6v385.2c0,4.2-3.4,7.7-7.7,7.7H489H106c-4.2,0-7.7-3.4-7.7-7.7V481.6V96.5
	c0-4.2,3.4-7.7,7.7-7.7H489h383.1c4.2,0,7.7,3.4,7.7,7.7V481.6z"/>
<path class="st0" d="M497.7,353.3c-17.8-30.5-49.4-48.6-93.2-53.5c-11.4-1.3-41.4-1.6-77.7-0.8c-34.8,0.8-39.8,1.1-42.8,3l-1.8,1.2
	l0.2,189.4l0.3,189.3l29.6,0.3c27.1,0.2,29.7,0.1,30.7-1.3c0.8-1.1,1-16.2,1-68.7v-67.3h23.6c25.6,0,34.4-0.9,51.6-5.1
	c43.8-10.9,73.7-36,86.7-73.1C518.4,430.9,514.9,382.8,497.7,353.3z M448.4,442.1c-4.7,17.7-15,30.8-30.1,38.2
	c-14.4,7.1-25.9,9-54.4,9h-20v-67.2c0-37,0.1-67.3,0.3-67.4c0.1,0,5.6-0.3,12.3-0.7c15.3-0.8,32.7-0.3,41.5,1.3
	c27.1,4.7,45.3,21,50.9,45.9C451.1,411,450.9,432.9,448.4,442.1z"/>
</svg>
