<?xml version="1.0" encoding="utf-8"?>
<!-- Generator: Adobe Illustrator 24.3.0, SVG Export Plug-In . SVG Version: 6.00 Build 0)  -->
<svg version="1.1" id="Camada_1" xmlns="http://www.w3.org/2000/svg" xmlns:xlink="http://www.w3.org/1999/xlink" x="0px" y="0px"
	 viewBox="0 0 1280 168" style="enable-background:new 0 0 1280 168;" xml:space="preserve">
<style type="text/css">
	.st0{fill:url(#background_1_);}
	.st1{fill:#FFFFFF;}
	.st2{font-family:'ArialMT';}
	.st3{font-size:14.4113px;}
	.st4{fill-rule:evenodd;clip-rule:evenodd;fill:#FFFFFF;}
	.st5{fill-rule:evenodd;clip-rule:evenodd;fill:url(#SVGID_1_);}
</style>
<linearGradient id="background_1_" gradientUnits="userSpaceOnUse" x1="3.4908" y1="56.216" x2="1282.0918" y2="116.0452" gradientTransform="matrix(1 0 0 -1 0 170)">
	<stop  offset="0" style="stop-color:#041834"/>
	<stop  offset="0.2358" style="stop-color:#051A38"/>
	<stop  offset="0.4668" style="stop-color:#082144"/>
	<stop  offset="0.6958" style="stop-color:#0C2D57"/>
	<stop  offset="0.9224" style="stop-color:#123D73"/>
	<stop  offset="1" style="stop-color:#15447E"/>
</linearGradient>
<rect id="background" class="st0" width="1280" height="168"/>
<g id="logo_1_">
	<text transform="matrix(1 0 0 1 491.7764 125.0684)" class="st1 st2 st3">S</text>
	<text transform="matrix(1 0 0 1 501.3867 125.0684)" class="st1 st2 st3">OLUÇÕES PARA MOVIMENTAÇÃO E ERGONOMIA</text>
	<g id="title">
		<path class="st4" d="M831.3,77.9v-5.1c0-2.7-0.1-5.4-0.4-8.1c-0.1-1.6-0.6-3.6-1.3-5v-0.1v-0.1c-0.9-2.4-2.6-3.6-5-4.1
			c-3.7-1-9.8-0.9-13.7-0.9H802c-4,0-10,0-13.8,0.9c-2.4,0.6-4.1,1.9-5.1,4.1c-1.6,3.6-1.7,9.4-1.7,13.3v5.1c0,3.9,0.1,9.7,1.7,13.3
			c1,2.3,2.9,3.6,5.3,4.1c3.7,1,9.8,0.9,13.7,0.9h8.8c3.9,0,9.8,0,13.7-0.9c2.4-0.6,4.1-1.7,5-4l0,0l0,0c0.7-1.4,1.1-3.4,1.3-5
			C831.1,83.3,831.3,80.6,831.3,77.9L831.3,77.9z M514.4,53.5l-29.5,51.6c-0.4,0.9-1.3,1.3-2.1,1.3h-3.4c-0.9,0-1.7-0.4-2.1-1.3
			l-29.1-51.5v50.6c0,1.3-0.9,2.1-2,2.1h-6c-1.3,0-2-0.9-2-2.1V46.6c0-1.3,0.7-2.1,2-2.1h13.6c0.9,0,1.7,0.4,2.1,1.3L481.5,92
			l26.4-46.4c0.4-0.7,1.1-1.3,2.1-1.3h12.4c1.3,0,1.9,1,1.9,2.1v57.8c0,1.1-0.7,2.1-1.9,2.1h-5.8c-1.3,0-2-0.9-2-2.1L514.4,53.5
			L514.4,53.5z M539.1,69.4h40.1c1.3,0,2,1,2,2.1v6c0,1.1-0.7,2.1-2,2.1h-40.1v16.7h41.7c1.3,0,2,0.9,2,2v6c0,1.1-0.7,2-2,2h-49.6
			c-1.3,0-2.1-0.9-2.1-2.1V61.4c0-1,0.9-1.9,1.9-1.9h6.4c1,0,1.9,0.9,1.9,1.9V69.4L539.1,69.4z M610.3,59.6h6.1c1,0,1.9,0.9,1.9,1.9
			v42.8c0,1.3-0.9,2.1-2,2.1h-5.8c-1.3,0-2-0.9-2-2.1V61.4C608.4,60.5,609.3,59.6,610.3,59.6L610.3,59.6z M663.1,55.2l-13.7,27.2
			h27.2L663.1,55.2L663.1,55.2z M681.6,92.4h-37.4l-5.8,12c-0.6,1.3-1.9,2-3.3,2h-5.4c-1.3,0-2-0.9-2-1.9c0-0.3,0-0.4,0.1-0.7
			l29-58.1c0.4-0.9,1.3-1.3,2.1-1.3h8.3c1,0,1.7,0.6,2.1,1.3l29.1,57.9c0.1,0.1,0.1,0.3,0.1,0.4v0.1c0,1.1-0.7,2.1-2,2.1h-5.8
			c-1.4,0-2.6-0.7-3.3-2L681.6,92.4L681.6,92.4z M711,55v14h34.2c5.1,0,9.7-1.3,9.7-7.1c0-5.7-4.6-6.8-9.4-6.8H711L711,55z
			 M756.2,82.3c-0.9-1-2-1.6-3.3-1.9c-1.9-0.6-3.9-0.7-5.7-0.7H711v24.7c0,1.3-0.9,2.1-2,2.1h-6c-1.3,0-2-0.9-2-2.1V46.6
			c0-1.3,0.7-2.1,2-2.1h41.1c11.7,0,21,4.1,21,17.1c0,2.4-0.3,5-1.1,7.3c-0.4,1.4-1.1,2.6-2.1,3.7c1.9,1.3,3.3,3.1,4.3,5.3
			c0.7,1.4,1,3,1.3,4.6c0.3,1.7,0.3,3.4,0.3,5.1v17c0,1.1-0.7,2.1-1.9,2.1h-6.3c-1.3,0-2-0.9-2-2.1c0-2.4,0.1-5,0.3-7.6
			c0.1-1.4,0.1-2.7,0.3-4.1c0-0.9,0.1-1.7,0.1-2.6c0-1.6-0.1-3.3-0.6-4.9C757.2,84.1,756.8,83.1,756.2,82.3L756.2,82.3z
			 M829.6,104.2L829.6,104.2l-0.9,0.4c-2.3,0.7-4.9,1.1-7.1,1.4c-3.4,0.4-7,0.4-10.6,0.4h-9c-5.7,0-14.8-0.3-20-2.7
			c-4.7-2.1-7.6-6-9-10.8c-0.7-2.4-1-5.3-1.1-7.8c-0.3-4-0.3-8.1-0.3-12.3c0-3.4,0.1-7,0.6-10.4c0.3-2.6,0.9-5.3,1.9-7.7
			c1-2,2.3-3.7,4-5.3c1.7-1.6,3.9-2.7,6-3.4h0.1h0.1c0,0,12.6-1.7,17.7-1.7h9c6,0,14.4,0.3,20,2.9c2.1,1,4,2.4,5.4,4.1
			c1.6,2,2.7,4.3,3.4,6.8c0.6,2.4,0.7,5.1,1,7.7c0.3,4,0.4,8.1,0.4,12.3c0,3.4-0.1,7-0.6,10.4c-0.3,2.6-0.9,5.3-2,7.7
			c-1,2-2.3,3.7-4,5.3C833.1,102.5,829.6,104.2,829.6,104.2z"/>
		
			<linearGradient id="SVGID_1_" gradientUnits="userSpaceOnUse" x1="350.9767" y1="351.2475" x2="368.8" y2="351.2471" gradientTransform="matrix(1 0 0 1 219.0551 -301.6378)">
			<stop  offset="0" style="stop-color:#839FC5"/>
			<stop  offset="1" style="stop-color:#3069B3"/>
		</linearGradient>
		<path class="st5" d="M643.7,54.7h-59.3c-0.9,0-1.3-0.7-0.9-1.6l3.1-6.4c0.6-1.3,1.9-2.1,3.1-2.1h58.9c1.3,0,1.4,1,0.9,2.1l-2.9,6
			C646.1,53.7,645,54.7,643.7,54.7L643.7,54.7z M530.8,54.7h-0.7c-1,0-1.3-0.7-0.9-1.6l3.1-6.4c0.6-1.3,1.9-2.1,3.1-2.1h0.1
			c1.3,0,1.4,1,0.9,2.1l-2.9,6C533.3,53.7,532.1,54.7,530.8,54.7L530.8,54.7z M538.5,54.7c1.3,0,2.4-1,3-2.1l2.9-6
			c0.6-1.1,0.4-2.1-0.9-2.1h-2.4c-1.3,0-2.6,0.9-3.1,2.1l-3.1,6.4c-0.4,0.9-0.1,1.6,0.9,1.6h2.9V54.7z M549.2,54.7h-5.7
			c-1,0-1.3-0.7-0.9-1.6l3.1-6.4c0.6-1.3,1.9-2.1,3.1-2.1h5.3c1.3,0,1.4,1,0.9,2.1l-2.9,6C551.7,53.7,550.5,54.7,549.2,54.7
			L549.2,54.7z M562.9,54.7c1.3,0,2.4-1,3-2.1l2.9-6c0.6-1.1,0.4-2.1-0.9-2.1h-8.3c-1.3,0-2.6,0.9-3.1,2.1l-3.1,6.4
			c-0.4,0.9-0.1,1.6,0.9,1.6h8.7V54.7z M579.5,54.7c1.3,0,2.4-1,3-2.1l2.9-6c0.6-1.1,0.4-2.1-0.9-2.1h-11.1c-1.3,0-2.6,0.9-3.1,2.1
			l-3.1,6.4c-0.4,0.9-0.1,1.6,0.9,1.6h11.6V54.7z"/>
	</g>
</g>
</svg>
