<?xml version="1.0" encoding="utf-8"?>
<!-- Generator: Adobe Illustrator 28.1.0, SVG Export Plug-In . SVG Version: 6.00 Build 0)  -->
<svg version="1.1" id="Camada_1" xmlns="http://www.w3.org/2000/svg" xmlns:xlink="http://www.w3.org/1999/xlink" x="0px" y="0px"
	 viewBox="0 0 1870.87 1360.63" style="enable-background:new 0 0 1870.87 1360.63;" xml:space="preserve">
<style type="text/css">
	.st0{fill-rule:evenodd;clip-rule:evenodd;fill:url(#SVGID_1_);}
	.st1{fill-rule:evenodd;clip-rule:evenodd;}
	.st2{font-family:'ArialMT';}
	.st3{font-size:58.8671px;}
	.st4{fill-rule:evenodd;clip-rule:evenodd;fill:url(#SVGID_00000060032504634511336390000002945765302893069736_);}
	.st5{fill-rule:evenodd;clip-rule:evenodd;fill:#FFFFFF;}
</style>
<g>
	<linearGradient id="SVGID_1_" gradientUnits="userSpaceOnUse" x1="649.3373" y1="531.0125" x2="722.0723" y2="531.0106">
		<stop  offset="0" style="stop-color:#839FC5"/>
		<stop  offset="1" style="stop-color:#3069B3"/>
	</linearGradient>
	<path class="st0" d="M949.84,551.95H707.99c-3.77,0-5.25-2.9-3.41-6.66l12.97-26.37c2.51-5.1,7.5-8.84,12.74-8.84h240.13
		c5.18,0,6.08,3.95,3.67,8.84l-11.9,24.2C959.79,548.01,954.98,551.95,949.84,551.95L949.84,551.95z M489.26,551.95h-2.48
		c-3.78,0-5.25-2.9-3.41-6.66l12.97-26.37c2.51-5.1,7.5-8.84,12.74-8.84h0.76c5.17,0,6.08,3.94,3.67,8.84l-11.9,24.2
		C499.2,548.02,494.43,551.95,489.26,551.95L489.26,551.95z M521.05,551.95c5.16,0,9.95-3.93,12.36-8.83l11.9-24.2
		c2.41-4.9,1.5-8.84-3.67-8.84h-9.88c-5.24,0-10.23,3.74-12.74,8.84l-12.97,26.37c-1.85,3.76-0.37,6.66,3.41,6.66H521.05
		L521.05,551.95z M564.74,551.95h-23.49c-3.78,0-5.25-2.9-3.41-6.66l12.97-26.37c2.51-5.1,7.5-8.84,12.74-8.84h21.77
		c5.18,0,6.08,3.94,3.67,8.84l-11.9,24.2C574.69,548.02,569.9,551.95,564.74,551.95L564.74,551.95z M620.32,551.95
		c5.15,0,9.95-3.93,12.36-8.83l11.9-24.2c2.41-4.89,1.5-8.84-3.67-8.84h-33.67c-5.24,0-10.23,3.74-12.74,8.84l-12.97,26.37
		c-1.85,3.76-0.37,6.66,3.41,6.66H620.32L620.32,551.95z M687.8,551.95c5.15,0,9.95-3.93,12.36-8.83l11.9-24.2
		c2.4-4.89,1.5-8.84-3.67-8.84h-45.56c-5.24,0-10.23,3.74-12.74,8.84l-12.97,26.37c-1.85,3.76-0.37,6.66,3.41,6.66H687.8z"/>
	<path class="st1" d="M1716.64,646.82v-21.14c0-11.05-0.32-22.27-1.49-33.26c-0.7-6.63-2.06-14.54-5.15-20.51l-0.18-0.34l-0.12-0.36
		c-3.23-9.61-10.53-14.48-20.35-16.72c-15.14-3.95-40.17-3.69-55.84-3.69h-36.3c-15.99,0-40.77-0.24-56.35,3.72
		c-9.9,2.3-17.13,7.51-21.09,17.03c-6.11,14.66-6.8,38.45-6.8,54.14v21.14c0,15.4,0.57,39.77,6.77,54.08
		c4.07,9.39,11.69,14.42,21.63,16.74c15.14,3.95,40.17,3.68,55.84,3.68h36.3c15.6,0,40.4,0.25,55.61-3.71
		c9.62-2.19,17.13-6.98,20.63-16.45l0.11-0.29l0.14-0.28c3.09-5.96,4.44-13.89,5.14-20.5
		C1716.32,669.08,1716.64,657.87,1716.64,646.82L1716.64,646.82z M421.69,547.07L301.58,758.14c-1.82,3.21-5,5.05-8.69,5.05h-13.94
		c-3.71,0-6.89-1.86-8.71-5.09L151.86,547.79v206.95c0,5.05-3.34,8.46-8.4,8.46h-24.58c-5.06,0-8.4-3.41-8.4-8.46V518.91
		c0-5.1,3.16-8.84,8.4-8.84h53.2c3.72,0,6.92,1.87,8.73,5.13l105.29,188.7l108.8-188.82c1.83-3.18,4.98-5.01,8.65-5.01h50.75
		c5.11,0,7.64,4.12,7.64,8.84v235.82c0,4.66-2.71,8.46-7.64,8.46h-24.21c-5.06,0-8.4-3.41-8.4-8.46V547.07L421.69,547.07z
		 M523.2,612.23h164.03c5.17,0,8.03,3.93,8.03,8.84v24.2c0,4.91-2.85,8.85-8.03,8.85H523.2v67.58h169.71c5,0,8.02,3.61,8.02,8.46
		v24.57c0,4.86-3.02,8.46-8.02,8.46H490.98c-5.06,0-8.4-3.41-8.4-8.46V579.62c0-4.13,3.37-7.5,7.5-7.5h25.63
		c4.13,0,7.5,3.37,7.5,7.5V612.23L523.2,612.23z M813.77,572.12h25.25c4.13,0,7.5,3.37,7.5,7.5v175.11c0,5.05-3.34,8.46-8.41,8.46
		H814.3c-5,0-8.02-3.6-8.02-8.46V579.62C806.28,575.49,809.65,572.12,813.77,572.12L813.77,572.12z M1029.58,554.3l-56.13,111.33
		h111.27L1029.58,554.3L1029.58,554.3z M1105.57,705.96H952.55l-24.24,48.89c-2.59,5.23-7.6,8.34-13.43,8.34h-21.77
		c-5.06,0-7.9-3.22-8.33-7.75c-0.1-0.98,0.07-1.83,0.5-2.71l118.45-237.13c1.73-3.47,5.06-5.53,8.94-5.53h33.9
		c3.87,0,7.19,2.05,8.93,5.51l118.87,236.49c0.31,0.63,0.47,1.22,0.52,1.92c0.01,0.24,0.02,0.48,0.02,0.73
		c0,4.86-3.02,8.46-8.02,8.46h-23.5c-5.83,0-10.82-3.09-13.42-8.3L1105.57,705.96L1105.57,705.96z M1224.83,553.5v57.21h140.22
		c20.81,0,40-5.14,40-29.19c0-23.13-18.49-28.02-38.49-28.02H1224.83L1224.83,553.5z M1409.88,664.49
		c-3.47-3.91-8.16-6.26-13.14-7.69c-7.4-2.12-15.71-2.68-23.39-2.68h-148.53v100.61c0,5.05-3.34,8.46-8.41,8.46h-24.2
		c-5.06,0-8.4-3.41-8.4-8.46V518.91c0-5.11,3.15-8.84,8.4-8.84h167.9c47.77,0,85.55,17.19,85.55,69.9c0,10.01-1.09,20.43-4.45,29.9
		c-2,5.63-4.87,10.77-8.88,14.99c7.66,5.25,13.3,12.75,17.38,21.32c2.74,5.75,4.29,12.08,5.16,18.37
		c0.96,6.96,1.37,14.01,1.37,21.05v69.13c0,4.66-2.72,8.46-7.65,8.46h-25.71c-5.06,0-8.4-3.41-8.4-8.46
		c0-10.15,0.58-20.47,1.15-30.71c0.42-5.6,0.81-11.2,1.12-16.81c0.19-3.47,0.37-6.99,0.37-10.47c0-6.57-0.43-13.67-2.1-20.04
		C1413.94,672.52,1412.34,668.09,1409.88,664.49L1409.88,664.49z M1709.62,754.14v0.43l-3.5,1.1c-9.34,2.93-19.6,4.5-29.31,5.57
		c-14.16,1.56-28.66,1.95-42.9,1.95h-36.68c-23.33,0-60.62-0.96-81.83-11.18c-19.17-8.57-30.72-24.31-36.42-44.3
		c-2.85-10-3.85-21.79-4.53-32.15c-1.09-16.56-1.33-33.29-1.33-49.89c0-14.24,0.47-28.67,2.11-42.82c1.2-10.43,3.4-21.49,7.85-31.22
		c4-8.1,9.35-15.28,16.1-21.3c7.12-6.35,15.59-10.81,24.6-13.86l0.78-0.26h0.38c20.46-6.79,51.07-7.3,72.3-7.3h36.68
		c24.36,0,58.98,1.36,81.48,11.59c8.77,3.98,16.29,9.67,22.4,17.13c6.61,8.06,10.92,17.59,13.7,27.88
		c2.13,10.11,3.1,21.07,3.88,31.38c1.26,16.55,1.53,33.32,1.53,49.92c0,14.13-0.54,28.46-2.31,42.49
		c-1.33,10.54-3.61,21.6-8.04,31.53c-4.02,8.17-9.46,15.34-16.32,21.34C1724.13,747.5,1717.18,751.44,1709.62,754.14z"/>
	<text transform="matrix(1 0 0 1 329.7847 839.4883)"><tspan x="0" y="0" class="st2 st3">S</tspan><tspan x="39.26" y="0" class="st2 st3">OLUÇÕES PARA MOVIMENTAÇÃO E ERGONOMIA</tspan></text>
</g>
<g>
	
		<linearGradient id="SVGID_00000179606002350618109720000015433605613516913071_" gradientUnits="userSpaceOnUse" x1="637.211" y1="-523.9771" x2="709.9459" y2="-523.9789">
		<stop  offset="0" style="stop-color:#839FC5"/>
		<stop  offset="1" style="stop-color:#3069B3"/>
	</linearGradient>
	<path style="fill-rule:evenodd;clip-rule:evenodd;fill:url(#SVGID_00000179606002350618109720000015433605613516913071_);" d="
		M937.71-503.04H695.87c-3.77,0-5.25-2.9-3.41-6.66l12.97-26.37c2.51-5.1,7.5-8.84,12.74-8.84H958.3c5.18,0,6.08,3.95,3.67,8.84
		l-11.9,24.2C947.66-506.98,942.86-503.04,937.71-503.04L937.71-503.04z M477.13-503.04h-2.48c-3.78,0-5.25-2.9-3.41-6.66
		l12.97-26.37c2.51-5.1,7.5-8.84,12.74-8.84h0.76c5.17,0,6.08,3.94,3.67,8.84l-11.9,24.2C487.08-506.97,482.3-503.04,477.13-503.04
		L477.13-503.04z M508.92-503.04c5.16,0,9.95-3.93,12.36-8.83l11.9-24.2c2.41-4.9,1.5-8.84-3.67-8.84h-9.88
		c-5.24,0-10.23,3.74-12.74,8.84l-12.97,26.37c-1.85,3.76-0.37,6.66,3.41,6.66H508.92L508.92-503.04z M552.61-503.04h-23.49
		c-3.78,0-5.25-2.9-3.41-6.66l12.97-26.37c2.51-5.1,7.5-8.84,12.74-8.84h21.77c5.18,0,6.08,3.94,3.67,8.84l-11.9,24.2
		C562.56-506.97,557.77-503.04,552.61-503.04L552.61-503.04z M608.19-503.04c5.15,0,9.95-3.93,12.36-8.83l11.9-24.2
		c2.41-4.89,1.5-8.84-3.67-8.84h-33.67c-5.24,0-10.23,3.74-12.74,8.84L569.4-509.7c-1.85,3.76-0.37,6.66,3.41,6.66H608.19
		L608.19-503.04z M675.67-503.04c5.15,0,9.95-3.93,12.36-8.83l11.9-24.2c2.4-4.89,1.5-8.84-3.67-8.84h-45.56
		c-5.24,0-10.23,3.74-12.74,8.84l-12.97,26.37c-1.85,3.76-0.37,6.66,3.41,6.66H675.67z"/>
	<path class="st5" d="M1704.51-408.17v-21.14c0-11.05-0.32-22.27-1.49-33.26c-0.7-6.63-2.06-14.54-5.15-20.51l-0.18-0.34l-0.12-0.36
		c-3.23-9.61-10.53-14.48-20.35-16.72c-15.14-3.95-40.17-3.69-55.84-3.69h-36.3c-16,0-40.77-0.24-56.35,3.72
		c-9.9,2.3-17.13,7.51-21.09,17.03c-6.11,14.66-6.8,38.45-6.8,54.14v21.14c0,15.4,0.57,39.77,6.77,54.08
		c4.07,9.39,11.69,14.42,21.63,16.74c15.14,3.95,40.17,3.68,55.84,3.68h36.3c15.6,0,40.4,0.25,55.61-3.71
		c9.62-2.19,17.13-6.98,20.63-16.45l0.11-0.29l0.14-0.28c3.09-5.96,4.44-13.89,5.14-20.5
		C1704.19-385.91,1704.51-397.12,1704.51-408.17L1704.51-408.17z M409.57-507.92L289.45-296.85c-1.82,3.21-5,5.05-8.69,5.05h-13.94
		c-3.71,0-6.89-1.86-8.71-5.09L139.73-507.2v206.95c0,5.05-3.34,8.46-8.4,8.46h-24.58c-5.07,0-8.4-3.41-8.4-8.46v-235.82
		c0-5.1,3.16-8.84,8.4-8.84h53.2c3.72,0,6.92,1.87,8.73,5.13l105.29,188.7l108.8-188.82c1.83-3.18,4.98-5.01,8.65-5.01h50.75
		c5.11,0,7.64,4.12,7.64,8.84v235.82c0,4.66-2.71,8.46-7.64,8.46h-24.21c-5.06,0-8.4-3.41-8.4-8.46V-507.92L409.57-507.92z
		 M511.08-442.76h164.03c5.17,0,8.03,3.93,8.03,8.84v24.2c0,4.91-2.85,8.85-8.03,8.85H511.08v67.58h169.71c5,0,8.02,3.61,8.02,8.46
		v24.57c0,4.86-3.02,8.46-8.02,8.46H478.85c-5.06,0-8.4-3.41-8.4-8.46v-175.11c0-4.13,3.37-7.5,7.5-7.5h25.63
		c4.13,0,7.5,3.37,7.5,7.5V-442.76L511.08-442.76z M801.65-482.87h25.25c4.13,0,7.5,3.37,7.5,7.5v175.11c0,5.05-3.34,8.46-8.41,8.46
		h-23.82c-5,0-8.02-3.6-8.02-8.46v-175.11C794.15-479.5,797.52-482.87,801.65-482.87L801.65-482.87z M1017.45-500.69l-56.13,111.33
		h111.27L1017.45-500.69L1017.45-500.69z M1093.44-349.03H940.42l-24.24,48.89c-2.59,5.23-7.6,8.34-13.43,8.34h-21.77
		c-5.06,0-7.9-3.22-8.33-7.75c-0.1-0.98,0.07-1.83,0.5-2.71l118.45-237.13c1.73-3.47,5.06-5.53,8.94-5.53h33.9
		c3.87,0,7.19,2.05,8.93,5.51l118.87,236.5c0.31,0.63,0.47,1.22,0.52,1.92c0.01,0.24,0.02,0.48,0.02,0.73
		c0,4.86-3.02,8.46-8.02,8.46h-23.5c-5.83,0-10.82-3.09-13.42-8.3L1093.44-349.03L1093.44-349.03z M1212.7-501.49v57.21h140.22
		c20.81,0,40-5.14,40-29.19c0-23.13-18.49-28.02-38.49-28.02H1212.7L1212.7-501.49z M1397.76-390.5c-3.47-3.91-8.16-6.26-13.14-7.69
		c-7.4-2.12-15.71-2.68-23.39-2.68H1212.7v100.61c0,5.05-3.34,8.46-8.41,8.46h-24.2c-5.06,0-8.4-3.41-8.4-8.46v-235.82
		c0-5.11,3.15-8.84,8.4-8.84h167.9c47.77,0,85.55,17.19,85.55,69.9c0,10.01-1.09,20.43-4.45,29.9c-2,5.63-4.87,10.77-8.88,14.99
		c7.66,5.25,13.3,12.75,17.38,21.32c2.74,5.75,4.29,12.08,5.16,18.37c0.96,6.96,1.37,14.01,1.37,21.05v69.13
		c0,4.66-2.72,8.46-7.65,8.46h-25.71c-5.06,0-8.4-3.41-8.4-8.46c0-10.15,0.58-20.47,1.15-30.71c0.42-5.6,0.81-11.2,1.12-16.81
		c0.19-3.47,0.37-6.99,0.37-10.47c0-6.57-0.43-13.67-2.1-20.04C1401.81-382.46,1400.22-386.9,1397.76-390.5L1397.76-390.5z
		 M1697.49-300.85v0.43l-3.5,1.1c-9.34,2.93-19.6,4.5-29.31,5.57c-14.16,1.56-28.66,1.95-42.9,1.95h-36.68
		c-23.33,0-60.62-0.96-81.83-11.18c-19.17-8.57-30.72-24.31-36.42-44.3c-2.85-10-3.85-21.79-4.53-32.15
		c-1.09-16.56-1.33-33.29-1.33-49.89c0-14.24,0.47-28.67,2.11-42.82c1.2-10.43,3.4-21.49,7.85-31.22c4-8.1,9.35-15.28,16.1-21.3
		c7.12-6.35,15.59-10.81,24.6-13.86l0.78-0.26h0.38c20.46-6.79,51.07-7.3,72.3-7.3h36.68c24.36,0,58.98,1.35,81.48,11.59
		c8.77,3.98,16.29,9.67,22.4,17.13c6.61,8.06,10.92,17.59,13.7,27.88c2.13,10.11,3.1,21.07,3.88,31.38
		c1.26,16.55,1.53,33.32,1.53,49.92c0,14.13-0.54,28.46-2.31,42.49c-1.33,10.54-3.61,21.6-8.04,31.53
		c-4.02,8.17-9.46,15.34-16.32,21.34C1712-307.49,1705.05-303.55,1697.49-300.85z"/>
	<text transform="matrix(1 0 0 1 317.6584 -215.5012)"><tspan x="0" y="0" class="st2 st3" style="fill:#FFFFFF;">S</tspan><tspan x="39.26" y="0" class="st2 st3" style="fill:#FFFFFF;">OLUÇÕES PARA MOVIMENTAÇÃO E ERGONOMIA</tspan></text>
</g>
</svg>
