<?xml version="1.0" encoding="utf-8"?>
<!-- Generator: Adobe Illustrator 27.4.0, SVG Export Plug-In . SVG Version: 6.00 Build 0)  -->
<svg version="1.1" id="Camada_1" xmlns="http://www.w3.org/2000/svg" xmlns:xlink="http://www.w3.org/1999/xlink" x="0px" y="0px"
	 viewBox="0 0 21 21" style="enable-background:new 0 0 21 21;" xml:space="preserve">
<style type="text/css">
	.st0{fill:#565555;}
	.st1{fill:#EEEEEE;}
</style>
<g>
	<path class="st0" d="M10.5,20.3L10.5,20.3c-5.5,0-9.8-4.4-9.8-9.8l0,0C0.7,5,5,0.7,10.5,0.7l0,0c5.5,0,9.8,4.4,9.8,9.8l0,0
		C20.3,16,16,20.3,10.5,20.3z"/>
	<path class="st1" d="M10.5,8.2c-1.3,0-2.3,1-2.3,2.3s1,2.3,2.3,2.3s2.3-1,2.3-2.3S11.8,8.2,10.5,8.2z M10.5,12.1
		c-0.8,0-1.6-0.6-1.6-1.6s0.6-1.6,1.6-1.6s1.6,0.6,1.6,1.6S11.5,12.1,10.5,12.1z"/>
	<circle class="st1" cx="13.1" cy="7.9" r="0.5"/>
	<path class="st1" d="M12.9,6H8.2C7,6,6,7,6,8.2v4.7c0,1.3,1,2.3,2.3,2.3h4.7c1.3,0,2.3-1,2.3-2.3V8.2C15,7,14,6,12.9,6z M12.6,14.2
		H8.4c-1,0-1.6-0.6-1.6-1.6V8.4c0-1,0.6-1.6,1.6-1.6h4.2c1,0,1.6,0.6,1.6,1.6v4.2C14.2,13.6,13.6,14.2,12.6,14.2z"/>
</g>
</svg>
