<?xml version="1.0" encoding="utf-8"?>
<!-- Generator: Adobe Illustrator 27.4.0, SVG Export Plug-In . SVG Version: 6.00 Build 0)  -->
<svg version="1.1" id="Camada_1" xmlns="http://www.w3.org/2000/svg" xmlns:xlink="http://www.w3.org/1999/xlink" x="0px" y="0px"
	 viewBox="0 0 595.3 192.2" style="enable-background:new 0 0 595.3 192.2;" xml:space="preserve">
<style type="text/css">
	.st0{opacity:7.000000e-02;}
	.st1{opacity:0;}
	.st2{fill:#020203;}
	.st3{opacity:7.690000e-02;}
	.st4{opacity:0.1538;}
	.st5{opacity:0.2308;}
	.st6{opacity:0.3077;}
	.st7{opacity:0.3846;}
	.st8{opacity:0.4615;}
	.st9{opacity:0.5385;}
	.st10{opacity:0.6154;}
	.st11{opacity:0.6923;}
	.st12{opacity:0.7692;}
	.st13{opacity:0.8462;}
	.st14{opacity:0.9231;}
</style>
<g class="st0">
	<g id="design_00000154399539325585799510000007060194256710392734_">
		<g class="st1">
			<path class="st2" d="M628.6,161.4c-13.9-10-28.4-18.8-43.1-26.1c-34-16.9-71.1-26.9-110.2-29.7c-38.1-2.8-79.1,1.1-121.9,11.5
				c-41.7,10.2-86.2,26.8-132.4,49.5c-90.2,44.3-176.2,39.3-232.5,27.2c-19.4-4.1-36.7-9.4-51.2-14.6c0,0.2,0,0.4,0,0.6
				c14.6,5.2,31.8,10.4,51.1,14.6c35.9,7.7,71.8,10.2,106.8,7.5c43.8-3.4,86.2-15.1,126.1-34.7c163.6-80.4,300.3-82,407.4-5
				C628.6,161.9,628.6,161.6,628.6,161.4z"/>
		</g>
		<g class="st3">
			<path class="st2" d="M628.6,163.5c-15.8-9.9-32-18.5-48.5-25.6c-34.7-15-71.7-24-110.2-26.8c-37.7-2.8-78.2,0.3-120.2,9.1
				c-41,8.6-85,23.1-130.7,42.9c-89.8,38.7-174.4,34.5-229.6,24.1c-19.9-3.7-37.6-8.6-52.3-13.3c0,0.2,0,0.4,0,0.6
				c14.7,4.7,32.3,9.5,52.1,13.3c35.2,6.6,70.5,8.7,105,6.3c43.2-3.1,85.2-13.3,124.9-30.4c161.9-70.3,296.5-70.3,409.4,0.6
				C628.6,164,628.6,163.7,628.6,163.5z"/>
		</g>
		<g class="st4">
			<path class="st2" d="M628.7,164.8c-52.3-28-106.4-43.7-163.9-47.9c-74.6-5.5-155.6,8.6-247.5,42.9
				C127.9,193,44.7,189.6-9.4,180.8c-20.6-3.3-38.6-7.7-53.3-11.9c0,0.2,0,0.4,0,0.6C-48,173.7-30,178-9.5,181.4
				c34.5,5.6,69.2,7.3,103.2,5.1c42.6-2.7,84.2-11.6,123.7-26.3c162-60.4,291.3-59.3,411.3,5.1C628.7,165.1,628.7,164.9,628.7,164.8
				z"/>
		</g>
		<g class="st5">
			<path class="st2" d="M628.7,165.2c-56.3-24.6-112.1-38.7-169.2-42.8c-74.3-5.4-154.1,5.6-244.1,33.8
				C126.4,184,44.6,181.4-8.3,174.3c-21.2-2.8-39.6-6.6-54.4-10.2c0,0.2,0,0.4,0,0.5c14.8,3.6,33.1,7.4,54.3,10.2
				c33.7,4.5,67.9,5.9,101.4,4c42-2.4,83.2-9.8,122.5-22.1c158.1-49.5,284.8-47.2,413.2,9.1C628.7,165.6,628.7,165.4,628.7,165.2z"
				/>
		</g>
		<g class="st6">
			<path class="st2" d="M628.7,164.9c-61.2-20.9-117.6-32.7-174.5-36.8c-37.7-2.7-75.3-2.1-115,1.9c-40,4.1-81.1,11.5-125.7,22.8
				c-88.6,22.3-168.9,20.5-220.7,15c-21.9-2.3-40.6-5.4-55.4-8.4c0,0.2,0,0.4,0,0.5c14.8,2.9,33.5,6.1,55.3,8.4
				c33,3.5,66.5,4.4,99.6,2.8c41.4-2,82.2-8,121.3-17.9c151.9-38.3,275.6-35.1,415.1,12.2C628.7,165.3,628.7,165.1,628.7,164.9z"/>
		</g>
		<g class="st7">
			<path class="st2" d="M628.6,163.8c-68.3-16.8-125.1-26.2-179.8-30.2c-76.4-5.5-151.8-0.6-237.3,15.7
				c-88.2,16.7-167.1,15.8-217.8,12c-22.6-1.7-41.7-4.1-56.4-6.3c0,0.2,0,0.4,0,0.5c14.7,2.2,33.8,4.6,56.4,6.3
				c50.7,3.8,129.7,4.8,217.9-12c161.8-30.8,280.2-19.2,417,14.5C628.7,164.2,628.6,164,628.6,163.8z"/>
		</g>
		<g class="st8">
			<path class="st2" d="M628.6,162.1c-146.1-22.4-259.8-36.5-419-16.3c-87.8,11.2-165.3,11-214.9,8.9c-23.3-1-42.8-2.5-57.4-3.9
				c0,0.2,0,0.4,0,0.5c14.6,1.4,34.1,2.9,57.4,3.9c49.6,2.1,127.1,2.3,215-8.9c159.1-20.3,272.8-6.1,418.9,16.3
				C628.6,162.5,628.6,162.3,628.6,162.1z"/>
		</g>
		<g class="st9">
			<path class="st2" d="M628.6,159.7c-40.7-2.6-78.1-5.8-114.6-8.8c-101.7-8.6-189.5-16-306.2-8.5c-122.7,7.9-224.4,6.1-270.4,4.6
				c0,0.2,0,0.4,0,0.5c46.1,1.5,147.8,3.3,270.5-4.6c116.7-7.5,204.4-0.1,306.1,8.5c36.5,3.1,74,6.2,114.7,8.8
				C628.6,160.1,628.6,159.9,628.6,159.7z"/>
		</g>
		<g class="st10">
			<path class="st2" d="M628.6,156.7c-83.2,1.7-151.9-3.6-218.5-8.7c-62.6-4.8-127.4-9.8-204.1-9.1c-124.6,1.1-225.2,3.6-268.5,4.7
				c0,0.2,0,0.4,0,0.5c43.3-1.2,143.9-3.6,268.6-4.7c76.7-0.7,141.5,4.3,204.1,9.1c58.1,4.5,117.8,9,187.2,9
				c10.2,0,20.7-0.1,31.3-0.3C628.6,157.1,628.6,156.9,628.6,156.7z"/>
		</g>
		<g class="st11">
			<path class="st2" d="M628.6,153.3c-118.1,12.2-201.3,3.5-296.2-6.3c-40-4.1-81.4-8.4-128.3-11.5c-126.8-8.3-226.2,0.3-266.7,4.8
				c0,0.2,0,0.4,0,0.5c40.4-4.6,139.8-13.1,266.6-4.8c46.9,3.1,88.3,7.4,128.3,11.5c61.7,6.4,118.4,12.3,183,12.3
				c34.8,0,71.9-1.7,113.3-6C628.6,153.6,628.6,153.4,628.6,153.3z"/>
		</g>
		<g class="st12">
			<path class="st2" d="M628.5,149.3c-141.5,25.5-230.2,12-340.2-4.8c-27.2-4.1-55.3-8.4-86.2-12.5c-86.4-11.3-158.2-8.2-203.2-3.6
				c-27.3,2.8-48.3,6.4-61.6,9.1c0,0.2,0,0.4,0,0.5c13.3-2.7,34.3-6.4,61.6-9.2c45-4.6,116.7-7.7,203.1,3.6
				c30.8,4,58.9,8.3,86.1,12.5c61.1,9.3,113.8,17.4,172.7,18.8c6.1,0.1,12.1,0.2,18.2,0.2c47.6,0,96.2-4.6,149.4-14.2
				C628.5,149.7,628.5,149.5,628.5,149.3z"/>
		</g>
		<g class="st13">
			<path class="st2" d="M628.5,144.9c-158.3,40.3-243.2,22.4-367.4-3.8c-19.4-4.1-39.4-8.3-60.8-12.5c-38-7.5-76.1-11.6-113.3-12.1
				c-29.8-0.4-59,1.4-87,5.4c-28.7,4.1-50.1,9.7-62.6,13.6c0,0.2,0,0.4,0,0.6c12.5-3.8,33.9-9.5,62.7-13.6
				c43.8-6.3,114.1-10.2,200.1,6.8c21.4,4.2,41.5,8.5,60.8,12.5c64.9,13.7,121,25.5,182.7,27.1c4.9,0.1,9.8,0.2,14.7,0.2
				c27.6,0,55.5-2.1,84.7-6.3c26.9-3.9,55.1-9.5,85.4-17.2C628.5,145.3,628.5,145.1,628.5,144.9z"/>
		</g>
		<g class="st14">
			<path class="st2" d="M628.4,140.1c-171.5,55.5-253.2,33.2-383.3-2.4c-14.9-4.1-30.4-8.3-46.7-12.6
				c-37.8-10.1-75.5-15.7-112.2-16.6c-29.3-0.7-58,1.5-85.2,6.6c-30.3,5.7-52.1,13.8-63.7,18.7c0,0.2,0,0.4,0,0.6
				c11.4-4.9,33.3-13.1,63.8-18.8c42.7-8,111.6-12.8,197.1,10c16.3,4.3,31.7,8.5,46.7,12.6c69.3,18.9,124,33.9,187,35.6
				c4,0.1,8.1,0.2,12.1,0.2c55.4,0,113.8-10.5,184.4-33.4C628.5,140.5,628.4,140.3,628.4,140.1z"/>
		</g>
		<g>
			<path class="st2" d="M628.4,134.9c-183.3,71.3-260.6,45-395-0.8c-11.8-4-24.1-8.2-36.9-12.5c-37.6-12.6-75-19.6-111-20.9
				c-28.8-1-56.9,1.6-83.4,7.7c-32.5,7.6-54.8,18.8-64.7,24.5c0,0.2,0,0.4,0,0.6c9.8-5.6,32.1-17,64.9-24.6
				c41.6-9.7,109-15.3,194.1,13.1c12.8,4.3,25,8.4,36.9,12.5c70.1,23.9,125.4,42.7,188.9,44.6c3.3,0.1,6.7,0.1,10.1,0.1
				c56.8,0,118.7-13.8,196.1-43.9C628.4,135.3,628.4,135.1,628.4,134.9z"/>
		</g>
		<g>
			<path class="st2" d="M628.3,121.4c-188.6,74.1-266.1,48.4-426.4-4.7c-39.5-13.1-78.5-20.3-116.1-21.6c-30.1-1-59.2,1.8-86.7,8.4
				c-28.8,6.9-49.7,16.5-61.6,22.9c0,0.2,0,0.4,0,0.6c11.8-6.4,32.8-16.1,61.7-23c43.1-10.3,113.3-16.4,202.5,13.2
				c44.2,14.7,80.8,26.6,115.1,35.3c37.5,9.5,69.4,14.3,100.5,15.2c3.3,0.1,6.7,0.1,10,0.1c58.2,0,120.2-14.1,201-45.8
				C628.3,121.8,628.3,121.6,628.3,121.4z"/>
		</g>
		<g>
			<path class="st2" d="M628.2,107.8c-169.4,67.5-250.8,60-421.1,3.9C165.9,98.1,125.1,90.6,86,89.4c-31.3-1-61.6,2.1-90.1,9
				c-26,6.4-45.7,14.9-58.5,21.5c0,0.2,0,0.4,0,0.6c12.7-6.6,32.5-15.1,58.6-21.5C40.7,88,113.6,81.4,207,112.2
				c83.5,27.6,149,44.7,214.1,44.7c2.4,0,4.8,0,7.2-0.1c57.6-1.1,117-15.4,199.9-48.5C628.2,108.2,628.2,108,628.2,107.8z"/>
		</g>
		<g>
			<path class="st2" d="M628.2,94.3c-156.1,63.5-236.5,71.2-415.7,12.4c-43.1-14.2-85.6-21.9-126.2-23.1c-32.5-0.9-64,2.3-93.4,9.7
				c-23.7,5.9-42.3,13.6-55.4,20.1c0,0.2,0,0.4,0,0.6c13.1-6.5,31.7-14.2,55.5-20.1c46.2-11.6,121.8-18.6,219.4,13.4
				C296.5,134.9,357,147,413.1,147c8.8,0,17.5-0.3,26.2-0.9c60.1-4.1,118.2-22.5,188.9-51.2C628.2,94.7,628.2,94.5,628.2,94.3z"/>
		</g>
		<path class="st2" d="M628.1,80.8c-141.1,58.6-225.9,81.2-410.3,21c-45-14.7-89.1-22.7-131.3-23.8c-33.7-0.9-66.3,2.6-96.8,10.3
			c-21.7,5.5-39.2,12.4-52.3,18.7c0,0.2,0,0.4,0,0.6c13.1-6.3,30.7-13.2,52.5-18.8C37.7,76.6,116,69.1,217.6,102.3
			c48.6,15.9,90.7,26.2,128.8,31.4c20.6,2.8,40.3,4.3,59.6,4.3c15,0,29.7-0.9,44.3-2.6c57.4-6.7,111.5-26.5,177.9-54
			C628.1,81.2,628.1,81,628.1,80.8z"/>
		<path class="st2" d="M628.1,67.3c-1.3,0.6-2.7,1.1-4,1.7c-122.1,52.2-210.3,89.9-401,27.8c-46.8-15.2-92.7-23.5-136.4-24.6
			c-35-0.9-68.7,2.8-100.1,11c-19.8,5.2-36.3,11.5-49.2,17.4c0,0.2,0,0.4,0,0.6c12.9-5.9,29.4-12.3,49.3-17.4
			C36.1,71,117.2,62.9,223,97.3c46.4,15.1,87.6,24.7,125.8,29.3c17.4,2.1,34.3,3.1,50.8,3.1c16.7,0,33.1-1.1,49.3-3.2
			c61-8.1,114.1-30.8,175.5-57.1c1.2-0.5,2.5-1.1,3.8-1.6C628.1,67.7,628.1,67.5,628.1,67.3z"/>
		<path class="st2" d="M628.1,53.8c-8.9,4-17.7,7.9-26.3,11.8c-101.7,46.1-189.5,85.9-373.3,26.3C179.9,76.1,132.3,67.6,87,66.5
			c-36.2-0.8-71,3.1-103.5,11.6C-34.7,83-50.1,88.7-62.6,94.3c0,0.2,0,0.4,0,0.6c12.5-5.6,28-11.4,46.2-16.2
			c50.9-13.4,134.7-22,244.6,13.7c62,20.1,116,29.9,166.1,29.9c17.9,0,35.2-1.2,52.3-3.7c58-8.4,105.2-29.8,155.3-52.5
			c8.5-3.9,17.2-7.8,26.1-11.7C628.1,54.1,628.1,53.9,628.1,53.8z"/>
		<path class="st2" d="M628.1,40.2c-11.6,5.4-23.2,11.1-35.2,17.1c-87.2,43.4-177.5,88.2-359.1,29.5c-50.4-16.3-99.7-25-146.6-26.1
			C49.8,60,13.8,64.2-19.6,73.1c-16.6,4.5-31,9.7-43,14.9c0,0.2,0,0.4,0,0.6c12-5.2,26.4-10.4,43.2-14.9
			c52.5-14.1,138.9-23.1,253,13.8c57.6,18.6,109.8,27.8,158.1,27.8c19.9,0,39.1-1.6,57.8-4.7c56.5-9.4,100.7-31.4,143.5-52.7
			c11.9-5.9,23.4-11.6,35-17C628.1,40.6,628.1,40.4,628.1,40.2z"/>
		<path class="st2" d="M628.1,13.3c-10.2,5.5-20.9,12.3-32.8,19.8C530.1,74.5,431.5,137,244.4,77C190.3,59.6,137.6,50.3,87.7,49.4
			C47.8,48.7,9.6,53.3-25.8,63c-13.8,3.8-26,8.1-36.8,12.4c0,0.2,0,0.4,0,0.6c10.8-4.4,23.1-8.7,37-12.5
			C30,48.2,121.9,38.2,244.3,77.5c82.8,26.6,155.1,32,220.8,16.5c56.1-13.2,97.3-39.3,130.4-60.3c11.8-7.5,22.5-14.3,32.6-19.7
			C628.1,13.8,628.1,13.5,628.1,13.3z"/>
		<path class="st2" d="M628.1,26.8c-11.8,5.8-23.9,12.6-36.4,19.5C516.1,88.4,422,140.8,239.1,81.9C186.9,65.1,135.8,56.1,87.5,55.1
			c-38.7-0.8-75.8,3.6-110.2,12.9c-15.2,4.1-28.5,8.9-39.9,13.7c0,0.2,0,0.4,0,0.6c11.5-4.8,24.8-9.6,40.1-13.7
			c54-14.7,143.2-24.2,261.5,13.9c81.4,26.2,152.4,32.7,217,20c56-11.1,98.5-34.7,136-55.6c12.4-6.9,24.4-13.6,36.2-19.4
			C628.1,27.2,628.1,27,628.1,26.8z"/>
		<path class="st2" d="M628.1,0c-7.7,4.7-16.2,10.9-26.1,18.2C542.8,61.5,443.7,134.1,249.7,72C193.8,54.1,139.4,44.6,88,43.7
			C46.9,43,7.5,47.8-28.9,58c-12.4,3.5-23.7,7.3-33.7,11.3c0,0.2,0,0.4,0,0.6c10.1-4,21.4-7.9,33.9-11.4
			c57.1-15.9,151.8-26.4,278.3,14.1c45.4,14.5,88.7,22.5,128.8,23.8c34.4,1.1,67.5-2.7,98.4-11.4c56.6-15.9,96.4-45.1,125.5-66.4
			c9.8-7.2,18.2-13.4,25.8-18C628.1,0.4,628.1,0.2,628.1,0z"/>
		<path class="st2" d="M628.2-13.1c-4.9,3.7-10.7,8.6-17.3,14.3c-49.2,42.5-151.7,131-355.8,65.9C197.3,48.6,141.2,38.9,88.2,38
			C45.9,37.3,5.4,42.4-32,52.9c-11.2,3.1-21.4,6.6-30.6,10.2c0,0.2,0,0.4,0,0.6c9.3-3.6,19.5-7.1,30.8-10.2
			c58.7-16.6,156.1-27.6,286.7,14.1c204.4,65.2,307-23.4,356.3-66c6.4-5.5,12-10.4,16.9-14.1C628.2-12.7,628.2-12.9,628.2-13.1z"/>
		<path class="st2" d="M628.2-25.8c-2,2-4.2,4.4-6.9,7.2C582.7,22.6,479.9,132,260.4,62.1c-59.6-19-117.4-29-171.9-29.8
			C44.9,31.7,3.3,36.9-35.1,47.9c-9.9,2.8-19.1,5.9-27.5,9.1c0,0.2,0,0.4,0,0.6c8.5-3.2,17.7-6.3,27.7-9.1
			c60.2-17.2,160.4-28.6,295.1,14.2c93.9,29.9,177.8,30.1,249.3,0.6c58.3-24,93.3-61.4,112.2-81.4c2.5-2.6,4.6-4.9,6.5-6.8
			C628.2-25.3,628.2-25.5,628.2-25.8z"/>
		<path class="st2" d="M628.3-36.9c-9.6,14.4-35,48-79.3,75.1c-53.4,32.7-145.8,62.6-283.3,18.9c-61.4-19.5-120.9-29.8-177-30.5
			C43.9,26,1.2,31.5-38.2,42.8c-8.7,2.5-16.8,5.2-24.4,7.9c0,0.2,0,0.4,0,0.6c7.6-2.8,15.8-5.5,24.6-8
			c61.8-17.8,164.7-29.8,303.6,14.3c60.8,19.3,117.9,26,169.8,19.8c41.5-4.9,79.9-18,113.9-38.8c43.7-26.8,69.1-59.8,79-74.6
			C628.2-36.3,628.2-36.6,628.3-36.9z"/>
	</g>
</g>
</svg>
