<?xml version="1.0" encoding="utf-8"?>
<!-- Generator: Adobe Illustrator 27.4.0, SVG Export Plug-In . SVG Version: 6.00 Build 0)  -->
<svg version="1.1" id="Camada_1" xmlns="http://www.w3.org/2000/svg" xmlns:xlink="http://www.w3.org/1999/xlink" x="0px" y="0px"
	 viewBox="0 0 21 21" style="enable-background:new 0 0 21 21;" xml:space="preserve">
<style type="text/css">
	.st0{fill:#565555;}
	.st1{fill:#EEEEEE;}
</style>
<g>
	<path class="st0" d="M10.5,20.1L10.5,20.1c-5.4,0-9.6-4.2-9.6-9.6l0,0c0-5.4,4.2-9.6,9.6-9.6l0,0c5.4,0,9.6,4.2,9.6,9.6l0,0
		C20.1,15.9,15.9,20.1,10.5,20.1z"/>
	<path class="st1" d="M13,8.8c-1.3,0-1.7,0.8-1.7,0.8V8.8H9.4v6h1.9v-3.1c0-1.1,0.8-1.3,1.1-1.3s0.9,0.2,0.9,0.9s0,3.5,0,3.5h1.9
		c0,0,0-2,0-3.6C15.2,9.4,14.3,8.8,13,8.8z"/>
	<rect x="6.4" y="8.8" class="st1" width="1.9" height="6"/>
	<circle class="st1" cx="7.4" cy="6.9" r="1.1"/>
</g>
</svg>
