<?xml version="1.0" encoding="utf-8"?>
<!-- Generator: Adobe Illustrator 27.0.0, SVG Export Plug-In . SVG Version: 6.00 Build 0)  -->
<svg version="1.1" id="conceito-1" xmlns="http://www.w3.org/2000/svg" xmlns:xlink="http://www.w3.org/1999/xlink" x="0px" y="0px"
	 viewBox="0 0 268 98.2" style="enable-background:new 0 0 268 98.2;" xml:space="preserve">
<style type="text/css">
	.st0{fill:#E56620;}
</style>
<g>
	<path d="M138.9,64.6H118l23.7-27.3l0,0c0.4-0.6,0.7-1.2,0.7-2c0-1.8-1.5-3.3-3.4-3.3c0,0,0,0,0,0v0l-28.3,0c-1.9,0-3.4,1.5-3.4,3.4
		s1.5,3.4,3.4,3.4l20.9,0l-22.3,25.9h0l-1,1.1c0,0,0,0,0,0L108,66l0,0c-0.5,0.6-0.8,1.3-0.8,2.1c0,1.8,1.5,3.3,3.3,3.3h28.3
		c1.9,0,3.4-1.5,3.4-3.4C142.2,66.1,140.7,64.6,138.9,64.6z"/>
	<path d="M104.9,35.2c0-1.8-1.5-3.3-3.4-3.3c-1.9,0-3.4,1.5-3.4,3.4c0,0,0,0,0,0l0,0l0,1.6c-3.5-3-8-4.9-12.9-4.9
		c-10.8,0-19.6,8.8-19.6,19.7s8.8,19.7,19.6,19.7c5,0,9.5-1.9,13-4.9v1.7h0c0.1,1.8,1.5,3.2,3.4,3.2c1.8,0,3.3-1.4,3.4-3.2h0v0
		c0,0,0-0.1,0-0.1c0,0,0-0.1,0-0.1L104.9,35.2L104.9,35.2z M85.2,64.7c-7.1,0-12.9-5.8-12.9-12.9c0-7.1,5.8-12.9,12.9-12.9
		c7.1,0,12.9,5.8,12.9,12.9C98.1,58.9,92.3,64.7,85.2,64.7z"/>
	<path d="M61.6,68.4L61.6,68.4l0-33c0,0,0-0.1,0-0.1c0-1.9-1.5-3.4-3.4-3.4c-1.9,0-3.4,1.5-3.4,3.4h0v0c0,0,0,0,0,0s0,0,0,0l0,1.5
		c-3.5-3.1-8-4.9-13-4.9c-10.8,0-19.6,8.8-19.6,19.7S31,71.3,41.9,71.3c5,0,9.5-1.9,13-5v2c0,0,0,10.7-11.4,12.7
		c0,0-8.1,1.6-12.8-6.4c-0.6-1-1.6-1.6-2.8-1.6c-1.8,0-3.3,1.5-3.3,3.3c0,0.5,0.1,0.9,0.3,1.3l0,0c0,0,5,10.6,18,10.1
		C55.7,87.3,61.9,75.3,61.6,68.4C61.6,68.4,61.6,68.4,61.6,68.4z M41.9,64.5c-7.1,0-12.9-5.8-12.9-12.9c0-7.1,5.8-12.9,12.9-12.9
		s12.9,5.8,12.9,12.9C54.8,58.7,49,64.5,41.9,64.5z"/>
	<path d="M180.5,14.2c0-1.9-1.5-3.4-3.4-3.4c-1.9,0-3.4,1.5-3.4,3.4c0,0,0,0,0,0h0l0,22.7c-3.5-3.1-8-4.9-12.9-4.9
		c-10.8,0-19.6,8.8-19.6,19.7s8.8,19.7,19.6,19.7c5,0,9.5-1.9,13-4.9v1.8h0c0,1.8,1.5,3.3,3.4,3.3s3.3-1.5,3.4-3.3h0V14.2
		L180.5,14.2L180.5,14.2z M160.8,64.6c-7.1,0-12.9-5.8-12.9-12.9c0-7.2,5.8-12.9,12.9-12.9c7.1,0,12.9,5.8,12.9,12.9
		C173.7,58.8,167.9,64.6,160.8,64.6z"/>
	<path d="M223.9,35.1c0-1.9-1.5-3.4-3.4-3.4c-1.9,0-3.4,1.5-3.4,3.4c0,0,0,0.1,0,0.1l0,1.6c-3.5-3-8-4.9-12.9-4.9
		c-10.8,0-19.6,8.8-19.6,19.7s8.8,19.7,19.6,19.7c5,0,9.5-1.9,12.9-4.9l0,1.6c0,0,0,0.1,0,0.1c0,1.9,1.5,3.4,3.4,3.4
		c1.9,0,3.4-1.5,3.4-3.3h0L223.9,35.1z M204.2,64.5c-7.1,0-12.9-5.8-12.9-12.9s5.8-12.9,12.9-12.9s12.9,5.8,12.9,12.9
		S211.3,64.5,204.2,64.5z"/>
</g>
<path class="st0" d="M230.6,71.2c-0.9,0.5-2.1-0.2-2.1-1.2v-9.4l0-9.3c0-1,1.1-1.7,2.1-1.2l8.1,4.5l8.5,4.8c0.9,0.5,0.9,1.9,0,2.4
	l-8.6,4.8L230.6,71.2z"/>
</svg>
