<?xml version="1.0" encoding="utf-8"?>
<!-- Generator: Adobe Illustrator 27.4.0, SVG Export Plug-In . SVG Version: 6.00 Build 0)  -->
<svg version="1.1" id="Camada_1" xmlns="http://www.w3.org/2000/svg" xmlns:xlink="http://www.w3.org/1999/xlink" x="0px" y="0px"
	 viewBox="0 0 432.8 392" style="enable-background:new 0 0 432.8 392;" xml:space="preserve">
<style type="text/css">
	.st0{fill:#F6F6F6;}
	.st1{fill:#282828;}
	.st2{fill:#545454;}
	.st3{fill:#EAEAEA;}
	.st4{fill:#FFB48F;}
	.st5{fill:#FFA780;}
	.st6{fill:#FFFFFF;}
	.st7{fill:#C65218;}
	.st8{fill:#E56620;}
	.st9{fill:none;stroke:#F7B290;stroke-width:3;stroke-miterlimit:10;}
	.st10{fill:#212121;}
</style>
<g id="pc">
	<ellipse id="sombra_00000058563940501603838530000001135913056944925830_" class="st0" cx="194.7" cy="356.5" rx="63" ry="6.5"/>
	<path class="st1" d="M200.8,317c0,0,0,20,2.6,25.8l-8.8,8l-9.3-8c0,0,2.5-4.7,2.5-25.8H200.8z"/>
	<path class="st2" d="M143.3,356.8h102.8c2.9,0,5.3-2.4,5.3-5.3v-3.4c0-2.9-2.4-5.3-5.3-5.3H143.3c-2.9,0-5.3,2.4-5.3,5.3v3.4
		C138,354.4,140.4,356.8,143.3,356.8z"/>
	<path class="st2" d="M87.2,169.5h214.6c6.3,0,11.5,5.1,11.5,11.5v124.6c0,6.3-5.1,11.5-11.5,11.5H87.2c-6.3,0-11.5-5.1-11.5-11.5
		V181C75.7,174.6,80.8,169.5,87.2,169.5z M87.4,295c0,5.2,4.2,9.5,9.5,9.5H292c5.2,0,9.5-4.2,9.5-9.5V191.5c0-5.2-4.2-9.5-9.5-9.5
		H96.9c-5.2,0-9.5,4.2-9.5,9.5V295z"/>
	<path class="st3" d="M112.2,304.5h164.5V124.2c0-2.6-2.1-4.7-4.7-4.7h-155c-2.6,0-4.7,2.1-4.7,4.7V304.5z"/>
	<path class="st4" d="M116.9,119.5h155c2.6,0,4.7,2.1,4.7,4.7v4.5H112.2v-4.5C112.2,121.6,114.3,119.5,116.9,119.5z"/>
	<rect x="112.2" y="275.8" class="st4" width="164.5" height="28.7"/>
	
		<rect x="112.2" y="185.8" transform="matrix(-1 -1.224647e-16 1.224647e-16 -1 388.8501 409.0567)" class="st5" width="164.5" height="37.5"/>
	
		<rect x="179.3" y="234.1" transform="matrix(-1 -1.224647e-16 1.224647e-16 -1 389.4135 499.0567)" class="st6" width="30.8" height="30.8"/>
	
		<rect x="218.9" y="234.1" transform="matrix(-1 -1.224647e-16 1.224647e-16 -1 468.6135 499.0567)" class="st6" width="30.8" height="30.8"/>
	
		<rect x="175.8" y="149.1" transform="matrix(-1 -1.224647e-16 1.224647e-16 -1 388.6748 308.1097)" class="st6" width="37.1" height="9.9"/>
	
		<rect x="163" y="197.1" transform="matrix(-1 -1.224647e-16 1.224647e-16 -1 388.6748 400.2362)" class="st6" width="62.7" height="6"/>
	
		<rect x="138" y="234.1" transform="matrix(-1 -1.224647e-16 1.224647e-16 -1 306.7438 499.0567)" class="st6" width="30.8" height="30.8"/>
	
		<rect x="158.3" y="206.9" transform="matrix(-1 -1.224647e-16 1.224647e-16 -1 388.6748 415.0954)" class="st6" width="72" height="1.3"/>
	
		<rect x="158.3" y="162.3" transform="matrix(-1 -1.224647e-16 1.224647e-16 -1 388.6748 325.8584)" class="st6" width="72" height="1.3"/>
	
		<rect x="133.2" y="210" transform="matrix(-1 -1.224647e-16 1.224647e-16 -1 388.6748 421.2404)" class="st6" width="122.3" height="1.3"/>
	<rect x="124.5" y="286.3" class="st6" width="35.2" height="1.3"/>
	<rect x="124.5" y="290.2" class="st6" width="29.2" height="1.3"/>
	<rect x="124.5" y="294" class="st6" width="30.2" height="1.3"/>
	<circle class="st6" cx="240.5" cy="290.1" r="1.8"/>
	<circle class="st6" cx="246.1" cy="290.1" r="1.8"/>
	<circle class="st6" cx="251.7" cy="290.1" r="1.8"/>
</g>
<g id="cone_2">
	<ellipse id="sombra_00000181083068987806623540000006143975217788127377_" class="st0" cx="75.9" cy="377" rx="70.2" ry="7.2"/>
	<path class="st7" d="M17.1,377.4h112.7c1.4,0,2.4-1.1,2.4-2.5v-3.6c0-1.4-1.1-2.5-2.4-2.5H17.1c-1.4,0-2.5,1.1-2.5,2.5v3.6
		C14.7,376.3,15.8,377.4,17.1,377.4z"/>
	<path class="st8" d="M51.4,287.3L51.4,287.3l5.4-19.1c0,0,24.1-2,39.6,24L105,323C105,323,78.7,358,51.4,287.3z"/>
	<path class="st4" d="M117.7,368.9H28.4l23-81.5l0,0c0,0,12.3,33.4,53.6,35.7L117.7,368.9z"/>
	<path class="st8" d="M43.4,315.6c0,0,16.6,37.6,67.9,30.1l0,0l6.4,23.1H28.4L43.4,315.6z"/>
	<path class="st4" d="M35.4,344.1L35.4,344.1c0,0,8.1,16.2,29.2,24.7H28.4L35.4,344.1z"/>
	<path class="st4" d="M56.8,268.2l9.9-35.2c1.9-6.7,11.5-6.7,13.3,0l16.4,59.1C70.7,288.3,56.8,268.2,56.8,268.2z"/>
	<path class="st8" d="M64.6,240.8l2.2-7.8c1.9-6.7,11.5-6.7,13.3,0l8.1,29.2C71.4,252.4,64.6,240.8,64.6,240.8z"/>
</g>
<g id="cone_1">
	<ellipse id="sombra_00000036229534879794967830000017234991576806284976_" class="st0" cx="331.6" cy="364.9" rx="63" ry="6.5"/>
	<path class="st7" d="M279.1,365.3h100.6c1.4,0,2.5-1.1,2.5-2.4v-2.7c0-1.4-1.1-2.5-2.5-2.5H279.1c-1.4,0-2.5,1.1-2.5,2.5v2.7
		C276.7,364.2,277.8,365.3,279.1,365.3z"/>
	<path class="st8" d="M309.6,284.5L309.6,284.5l4.8-17.1c0,0,21.6-1.8,35.6,21.5l7.7,27.6C357.7,316.5,334.1,347.9,309.6,284.5z"/>
	<path class="st4" d="M369.1,357.7H289l20.7-73.2l0,0c0,0,11.1,30,48.1,32L369.1,357.7z"/>
	<path class="st8" d="M302.5,309.9c0,0,14.9,33.7,60.9,27l0,0l5.7,20.7H289L302.5,309.9z"/>
	<path class="st4" d="M295.3,335.5L295.3,335.5c0,0,7.2,14.5,26.2,22.2H289L295.3,335.5z"/>
	<path class="st4" d="M314.5,267.4l8.9-31.5c1.7-6,10.3-6,12,0l14.7,53C327,285.4,314.5,267.4,314.5,267.4z"/>
	<path class="st8" d="M321.4,242.8l2-7c1.7-6,10.3-6,12,0l7.3,26.2C327.5,253.2,321.4,242.8,321.4,242.8z"/>
</g>
<g id="placa">
	<path class="st8" d="M235.2,94l88.6-88.6c0.8-0.8,1.9-1.3,3.1-1.3h10.5c1.1,0,2.2,0.5,3.1,1.3l87.5,87.5c0.8,0.8,1.3,1.9,1.3,3.1
		v12.8c0,1.1-0.5,2.2-1.3,3.1l-86.4,86.4c-0.8,0.8-1.9,1.3-3.1,1.3h-12.8c-1.1,0-2.2-0.5-3.1-1.3l-87.5-87.5
		c-0.8-0.8-1.3-1.9-1.3-3.1V97.1C233.9,95.9,234.4,94.8,235.2,94z M423.9,105.3c1.7,0,3.1-1.4,3.1-3.1c0-1.7-1.4-3.1-3.1-3.1
		c-1.7,0-3.1,1.4-3.1,3.1C420.8,103.9,422.2,105.3,423.9,105.3z M239.3,105.3c1.7,0,3.1-1.4,3.1-3.1c0-1.7-1.4-3.1-3.1-3.1
		c-1.7,0-3.1,1.4-3.1,3.1C236.2,103.9,237.6,105.3,239.3,105.3z"/>
	<path class="st9" d="M339.7,17.9l75.8,75.8c0.9,0.9,1.4,2.2,1.4,3.5v10.2c0,1.3-0.5,2.6-1.4,3.5l-74.8,74.8
		c-0.9,0.9-2.2,1.4-3.5,1.4h-10.2c-1.3,0-2.6-0.5-3.5-1.4l-75.8-75.8c-0.9-0.9-1.4-2.2-1.4-3.5v-8.3c0-1.3,0.5-2.6,1.4-3.5
		l76.8-76.8c0.9-0.9,2.2-1.4,3.5-1.4h8.2C337.5,16.4,338.7,16.9,339.7,17.9z"/>
	<path class="st10" d="M343.9,106.1c-0.2-0.2-0.2-0.6,0-0.9L358.5,89c0.3-0.3,0.7-0.4,1.1-0.3c0.8,0.3,3.3,1.6,8.1-0.1
		c5.7-2,7.3-9.3,7.4-12.1c0-0.4-0.4-0.5-0.7-0.3l-8.5,8.5l-7.2-1.4l-1.5-8.1l8.1-8.5c0.2-0.2,0.1-0.6-0.3-0.6
		c-4.7,0-9.6,1.9-11.5,6.4c-1.6,3.8-0.9,7.9-0.6,9.3c0.1,0.4,0,0.7-0.3,1l-15.5,15.7c-0.2,0.2-0.6,0.2-0.9,0
		c-2.9-2.8-16.9-18.5-19.1-20.6c-2.4-2.4-1.6-8.9,1.9-12.9c2.5-2.8,9.1-1.7,13.1-1c0.5,0.1,0.8-0.7,0.3-0.9
		c-13.9-7.6-27,0.5-30.3,3.2c-0.6,0.4-1.1,0.9-1.6,1.3c-2.8,2.4-3.1,6.6-0.6,9.3l-6.1,6.1c0,0-1.5-0.7-2.2-0.2
		c-1.2,0.9-4.6,4.3-5.8,5.5c-0.2,0.2-0.2,0.6,0,0.9l7.3,7.2c0.2,0.2,0.6,0.2,0.8,0c1.1-1.1,4-4.1,5.4-5.5c0.7-0.8,0.2-2.8,0.2-2.8
		l5.5-4.8c0.3-0.2,0.7-0.2,1,0l3.1,3.1c0.2,0.2,0.5,0.3,0.8,0.3l0.7-0.1c0.4,0,0.7,0.1,1,0.4l16.9,18.8c0.2,0.2,0.2,0.6,0,0.9
		l-15.6,16.1c-2.4-1-11.9-2.4-14.3,7.2c-2.4,9.5,5.6,16.2,14.3,12.8c8.7-3.4,6.3-13.3,6.3-13.3l15.9-15.9c0.2-0.2,0.6-0.2,0.9,0
		l25.5,25.4c1.9,1.9,5.1,2.2,7.2,0.5c2.4-2,2.5-5.6,0.3-7.8L343.9,106.1z M311,139.4l-6.8-1.7l-1.3-7.1l4.9-4.2l6.6,2l0.9,6.9
		L311,139.4z"/>
</g>
</svg>
