<?xml version="1.0" encoding="utf-8"?>
<!-- Generator: Adobe Illustrator 27.4.0, SVG Export Plug-In . SVG Version: 6.00 Build 0)  -->
<svg version="1.1" id="Camada_1" xmlns="http://www.w3.org/2000/svg" xmlns:xlink="http://www.w3.org/1999/xlink" x="0px" y="0px"
	 viewBox="0 0 921.1 628.8" style="enable-background:new 0 0 921.1 628.8;" xml:space="preserve">
<style type="text/css">
	.st0{opacity:0.22;}
	.st1{fill:#FFFFFF;}
	.st2{fill:#E3FEFF;}
	.st3{fill:#FEFEFE;}
	.st4{fill:#E4F7F8;}
	.st5{fill:#D1EBF5;}
	.st6{fill:#D3EBF7;}
	.st7{fill:#FAFEFD;}
	.st8{fill:#D4EAF7;}
	.st9{fill:#DEF3F7;}
	.st10{fill:#E1F4F6;}
	.st11{fill:#E2F6F8;}
	.st12{fill:#DFF6F7;}
	.st13{fill:#FDFFFE;}
	.st14{fill:#E0F7F8;}
	.st15{fill:#E1F5F6;}
	.st16{fill:#C1DBE7;}
	.st17{fill:#C5DCEA;}
	.st18{fill:#BFD9E5;}
	.st19{fill:#C7DAE4;}
	.st20{fill:#E1F7F7;}
	.st21{fill:#BDD8EB;}
	.st22{fill:#BCD8EA;}
	.st23{fill:#BDD9E8;}
	.st24{fill:#C2D9E2;}
	.st25{fill:#BFD8E7;}
	.st26{fill:#E1F3F5;}
	.st27{fill:#3B4759;}
	.st28{fill:#333F4A;}
	.st29{fill:#FEFEFF;}
	.st30{fill:#E0F7F6;}
	.st31{fill:#E7F4F5;}
	.st32{fill:#353E50;}
	.st33{fill:#1C2A2F;}
	.st34{fill:#3D4659;}
	.st35{fill:#2D3F4C;}
	.st36{fill:#1A1C28;}
	.st37{fill:#40576F;}
	.st38{fill:#2B333B;}
	.st39{fill:#50707F;}
	.st40{fill:#ECBE3B;}
	.st41{fill:#CC4512;}
	.st42{fill:#96C34D;}
	.st43{fill:#384559;}
	.st44{fill:#3A4558;}
	.st45{fill:#9AC53D;}
	.st46{fill:#C33641;}
	.st47{fill:#73959D;}
	.st48{fill:#222938;}
	.st49{fill:#C32E13;}
	.st50{fill:#FFFC46;}
	.st51{fill:#3F5467;}
	.st52{opacity:0.5;fill:#313B45;}
	.st53{fill:#23283B;}
	.st54{fill:#313A45;}
	.st55{fill:#313B45;}
	.st56{fill:#E0FEFD;}
</style>
<g id="background">
	<path class="st0" d="M15.1,574.7h888.8c0,0-0.8,44-52,44c-51.2,0-739.8,0-786.9,0S15.1,574.7,15.1,574.7z"/>
</g>
<image style="display:none;overflow:visible;" width="1030" height="772" id="img" xlink:href="printer-1030x772.jpg"  transform="matrix(1 0 0 1 -66 -113.4)">
</image>
<g id="papeis">
	<path id="_x31__00000027563523627156605500000001489083661795429507_" class="st1" d="M172.7,274l11.2,33.4
		c0.4,1.1,1.4,1.7,2.6,1.6c7.8-1,37.5-3.6,51.8,14.4c0.4,0.5,1.1,0.7,1.6,0.3l1.9-1c1.2-0.6,1.8-1.9,1.6-3.2
		c-1.5-10.5-11.5-55-68.7-48.7C173.2,271,172.2,272.5,172.7,274z"/>
	<path id="_x32__00000017481243056511987410000006251886753408678320_" class="st2" d="M340.3,128.9l34.4,15.6
		c0.7,0.3,1.5,0.1,2-0.6l31.7-51.3c0.5-0.8,0.2-1.9-0.7-2.2l-42.5-18.3c-0.8-0.3-1.7,0-2,0.8l-23.6,54
		C339.2,127.6,339.6,128.5,340.3,128.9z"/>
	<path id="_x33__00000077309968232358595280000014360366460051192493_" class="st3" d="M464.1,109.4l15-11.8c0.3-0.2,0.6-0.4,1-0.4
		c5.6-0.5,52.9-3.8,72.5,29.2c0.6,1,0.1,2.4-1.1,2.8l-36.3,11.4c-0.9,0.3-1.8-0.1-2.2-0.9c-9.5-17.4-20-22.1-48.1-26.9
		C463.3,112.5,462.8,110.4,464.1,109.4z"/>
	<path id="_x34__00000101810751322358653540000006581096486159528081_" class="st4" d="M573.9,38.2l13.3,8.8
		c0.1,0.1,0.3,0.1,0.5,0.2c3.3,0.3,39,2.4,54.1-26.6c0.3-0.6,0-1.3-0.7-1.4c-5.1-1.1-24-5.3-29.5-6.7c-0.5-0.1-1.1,0.2-1.2,0.7
		c-0.9,3.9-6.4,18.6-36.2,23.2C573.4,36.6,573.2,37.7,573.9,38.2z"/>
	<g id="_x35_">
		<path class="st1" d="M591.2,159c-3.9,13.6-9.7,55.1-54.8,58.4c-1,0.1-1.1,1.6-0.1,1.7c13.7,2.1,41,4.8,54.4-6.7
			c16.2-13.9,22.4-34.9,23.7-39.7c0.2-0.6-0.1-1.2-0.6-1.6L593.3,158C592.5,157.4,591.5,158,591.2,159z"/>
		<path class="st5" d="M539.5,211c3.2,0.8,48.3,11,63.2-12.4c0,0-20.9,45.6-89.3,25.1c-0.5-0.2-0.6-0.9-0.1-1.1l25.8-11.5
			C539.3,210.9,539.4,210.9,539.5,211z"/>
	</g>
	<g id="_x36_">
		<path class="st1" d="M752.1,145.4l12.3,10.9c0.2,0.2,0.3,0.5,0.1,0.7c-1.3,2.7-9.4,18.5-21.4,25.5c-13.1,7.7-50.9-8.4-25.8-6.6
			c22,1.6,32.1-25,33.8-30.2C751.2,145.2,751.8,145.1,752.1,145.4z"/>
		<path class="st6" d="M715.8,169.2l-20.9,1.8c-0.6,0-0.9,0.7-0.5,1.2c2.9,3.7,13.7,15.7,31,15.2c17.3-0.5,26.2-11.7,26.2-11.7
			s-23.6,6.9-35.1-6.2C716.3,169.3,716,169.2,715.8,169.2z"/>
	</g>
	<g id="_x37_">
		<path class="st7" d="M776.8,287.9l-21,14.2c-0.6,0.4-0.8,1.1-0.5,1.7c1.6,3.4,7.6,13.9,21.9,22.5c17.3,10.4,32.7,1.2,32.7,1.2
			s-27.3,1-31-38.6C778.8,287.9,777.7,287.3,776.8,287.9z"/>
		<path class="st8" d="M831.9,314c0,0,1.1,17.4-8.8,26.1c-4.5,4-41.9-1.5-60-25.1C763.2,315,793.7,329.3,831.9,314z"/>
	</g>
	<path id="_x38__00000106858510366879317450000001821890857841135016_" class="st9" d="M724.4,433.1L713,462.7
		c-0.1,0.2,0,0.4,0.2,0.4c2.8,1.1,24.2,7.6,53.6-27.6c0.1-0.1,0.1-0.1,0.1-0.2V417c0-0.3-0.4-0.5-0.6-0.2
		c-11.1,13.1-26.5,22.1-41.5,16.2C724.6,432.8,724.4,432.9,724.4,433.1z"/>
	<g id="_x39_">
		<path class="st3" d="M463.7,564l19.1,6c1,0.3,1.8,1.1,2.1,2.1l6.3,20c0.4,1.2,0,2.6-1,3.4l-10.6,8.4c-0.5,0.4-1.2,0.7-1.9,0.7
			h-20.9c-1.2,0-2.3-0.7-2.8-1.8c-6-6.2-9.7-14.2-11.1-23.9c-0.4-0.9-0.4-1.8,0-2.7l3.5-7c0.7-1.3,2.2-2,3.6-1.6l5.2,1.5
			c1.2,0.3,2.5-0.1,3.2-1l2.1-2.9C461.2,564.1,462.5,563.7,463.7,564z"/>
		<path class="st10" d="M475.7,575.1l-4,2c-0.5,0.2-1,0.1-1.3-0.3l-6.3-8.9c-0.4-0.6-1.3-0.6-1.7,0l-2.6,3.6c-0.3,0.4-0.3,0.9,0,1.3
			l11.4,14c0.4,0.5,1,0.5,1.5,0.2l6.5-5.3c0.4-0.3,0.5-0.8,0.3-1.3l-2.3-4.7C476.9,575.1,476.2,574.9,475.7,575.1z"/>
		<path class="st10" d="M455.7,577.8c-1.4-0.7-4.1-2.2-5.8-3.1c-0.8-0.4-1.7,0.1-1.7,1l-0.3,11.2c0,0.2,0,0.4,0.1,0.6l5.9,11.2
			c0.2,0.4,0.6,0.6,1,0.6h5.5c0.1,0,0.2,0,0.3-0.1l5.1-1.6c0.2-0.1,0.5-0.1,0.7,0l8.4,2.7c0.3,0.1,0.6,0.1,0.8,0
			c2.1-1,11.3-5.3,11.4-5.5c0-0.1-0.1-1.9-0.3-3.8c-0.1-1.3-1.9-1.4-2.2-0.2l-0.6,2.1c-0.1,0.3-0.3,0.6-0.7,0.7l-7.4,3
			c-0.5,0.2-1,0.1-1.3-0.3l-6.2-7.1c-0.5-0.5-1.3-0.5-1.8,0.1l-3.5,4.8c-0.2,0.2-0.4,0.4-0.7,0.4c-1.4,0.2-5.6,0.9-5.6,0.7
			c0-0.2-3-9.3-2.9-9.5c0.1-0.2,1.6-4.3,2.4-6.2C456.4,578.7,456.2,578.1,455.7,577.8z"/>
		<path class="st3" d="M764.1,533.2l-2,5.2c-0.3,0.7-0.9,1.3-1.6,1.6l-9.4,3.2c-1.3,0.4-2,1.8-1.7,3.1c0.6,2.7,1.6,7.4,1.8,11.4
			c0,0.6,0.3,1.2,0.7,1.7c1.8,1.9,7.1,7.3,11.1,9.7c1,0.6,2.2,0.4,3-0.3l3.3-2.8c0.7-0.6,1.6-0.8,2.5-0.5l12,3.8
			c1.3,0.4,2.6-0.2,3.2-1.4l8-17.7c0.3-0.6,0.3-1.2,0.1-1.8c-0.8-2.4-3.5-9-12.4-15.5c-0.4-0.3-0.9-0.5-1.4-0.5l-14.6-0.8
			C765.5,531.5,764.5,532.2,764.1,533.2z"/>
		<polygon class="st11" points="782.5,562.5 783.3,555.5 773,551.2 772.3,547.6 759.9,555.6 764.1,559.8 768.4,555.4 		"/>
		<path class="st12" d="M757.7,549.1c-0.4,0.4-1,0.4-1.4,0c-1.3-1.4-4-4.3-3.8-4.4c0.2-0.2,7-2.4,7.3-2.4c0.3,0,4.1-0.1,4.2-0.3
			c0.1-0.2,2.7-6.4,3.6-8.5c0.2-0.4,0.6-0.7,1.1-0.6l12.7,1.7c0.2,0,0.5,0.2,0.6,0.3l10.2,12c0.4,0.4,0.3,1.1-0.2,1.4l-2.8,2.1
			c-0.3,0.2-0.7,0.3-1.1,0.1l-7.4-3.9c-0.4-0.2-0.6-0.7-0.5-1.1c0.3-1.3,0.9-4,1-4.2c0-0.2-6.8-3.3-9.5-4.6
			c-0.6-0.3-1.2,0.1-1.4,0.6l-1.7,6.3c-0.1,0.4-0.4,0.7-0.8,0.7l-5.9,0.9c-0.2,0-0.4,0.1-0.5,0.3L757.7,549.1z"/>
	</g>
	<g id="pilha_2">
		<polygon class="st13" points="601.1,384.7 600.3,410.8 597.7,410.8 597.7,465.6 599.4,466.1 594.4,491.6 591.2,491.6 589.7,531.3 
			592.4,531.3 592.5,555.1 591.5,555.1 590.8,574.7 498,574.7 487.2,522.4 496.5,383.5 		"/>
		<path class="st14" d="M638.5,388v23.4h-2c0,0,1.2,58.4-2.2,80.6l-3.4,2.8l-0.7,37h-2.3v24.5h-2.6v18.3h-34.5l0.7-20l-60.3-2h61.4
			l-0.1-20.9l-2.7-0.5l1.5-39.7l2.3-0.1l6-25.2l-52,0.4l50-3.3l0.1-18.3l-44.5-0.5l44.4-2.1l0.3-32.1l2.4-0.3l-0.1-10.4l-64.1,0.6
			l64.4-2.6l0.3-12.6l4.9,0.3L638.5,388z"/>
		<polygon class="st13" points="610.1,337.3 525.9,341.1 527,384.3 605.7,385.3 		"/>
		<polygon class="st15" points="610.1,337.3 607.8,362.7 532.8,365.1 607.6,365.1 605.7,385.3 641.7,388.4 645.5,348.9 		"/>
		<path class="st16" d="M644.7,357.9l-24.3-4.1c-0.2,0-0.2,0.2-0.1,0.3l24,6.9L644.7,357.9z"/>
		<path class="st16" d="M642.2,383.7l-24.6-2.4c-0.3,0-0.4,0.4-0.1,0.5l24.3,5.8L642.2,383.7z"/>
		<path class="st17" d="M600.9,388.7l26.1-0.7c0.2,0,0.2-0.2,0-0.2l-26-1.1L600.9,388.7z"/>
		<path class="st17" d="M597.7,458.6l26.2-0.7c0.2,0,0.2-0.2,0-0.2l-26.1-1.1L597.7,458.6z"/>
		<path class="st17" d="M589.9,526.3l26.6-0.8c0.2,0,0.2-0.2,0-0.2l-26.5-1.1L589.9,526.3z"/>
		<path class="st18" d="M636.7,432.3l-23.6,0.6c-0.3,0-0.3,0.4,0,0.5l23.6,2.1V432.3z"/>
		<polygon class="st19" points="634.3,492.1 606.8,491.8 630.9,494.9 		"/>
	</g>
	<g id="pilha_1">
		<polygon class="st3" points="285.3,370.3 225.5,370.3 226.2,411.9 220.5,414.9 221.9,486.7 227.7,495.4 227.2,540.3 224.8,545.1 
			224.8,574.7 328.7,574.7 		"/>
		<polygon class="st20" points="225.5,370.3 183.8,373.3 187.7,412.7 185.3,417.7 188.3,487.9 192.9,490.7 195.2,574.7 224.8,574.7 
			224.8,546.1 279.9,545.3 227.2,540.3 227.7,495.4 279.9,491.5 222.7,487.9 221.9,486.7 221.1,446.3 292.7,442.5 221,441.4 
			220.5,414.9 228,412 227,395.3 284.3,391.3 226,390.7 		"/>
		<path class="st21" d="M225.5,370.3c0,0-37.9-0.5-39.7-0.5c-4.9,0-10.7,9.3-9.9,14.3c0,0.2,0.3,0.4,0.5,0.3
			C183.2,379.2,212.5,371.3,225.5,370.3z"/>
		<polygon class="st22" points="186,395.7 217.4,395.7 186.5,400.4 		"/>
		<path class="st23" d="M220.5,415.6l0.1,3.1l-28.1-0.5c-0.2,0-0.2-0.2,0-0.2L220.5,415.6z"/>
		<path class="st24" d="M187,456.6l12.9,0.4c0.2,0,0.2,0.2,0,0.2l-12.9,1.6L187,456.6z"/>
		<path class="st25" d="M200.2,470.9l-4.5,4.8c-0.3,0.3-0.1,0.9,0.4,0.9l21.4-0.7c0.2,0,0.4-0.1,0.5-0.3l1.7-4.1
			c0.1-0.3-0.1-0.7-0.5-0.7h-18.6C200.5,470.7,200.3,470.8,200.2,470.9z"/>
		<path class="st25" d="M188.3,487.9h23.9c0.1,0,0.1,0.2,0,0.2l-19.3,2.6L188.3,487.9z"/>
		<path class="st25" d="M227.5,516.7h-19.8c-0.1,0-0.2,0.2,0,0.2l19.8,3.6V516.7z"/>
		<path class="st26" d="M252.1,455.1l43-1.2c0,0-12.6,5.2-16.8,5.2C274.1,459.1,252.1,455.1,252.1,455.1z"/>
		<polygon class="st26" points="287.2,383.5 265.5,383.5 289.5,386.6 		"/>
		<polygon class="st26" points="264,416.9 291.9,416.3 291.9,420 		"/>
		<polygon class="st26" points="308.7,550 265.1,551.5 314.9,552.7 		"/>
	</g>
</g>
<g id="lixo">
	<path class="st27" d="M177.1,476.5l43.2,69.4c1.3,2.1,1.4,4.6,0.3,6.8c-7.5,14.8-19.9,24.8-36.6,30.4c-2.3,0.8-4.9,0.3-6.8-1.3
		l-64.4-55.5L177.1,476.5z"/>
	<path class="st28" d="M124.9,507.4c0.1,0,0.2-0.2,0.2-0.3l-0.2-2.1c-1.2,1.1-2.3,2.2-3.4,3.3c0,0,0,0,0.1,0L124.9,507.4z"/>
	<path class="st28" d="M118.5,522.1c-0.1-0.1-0.1-0.1-0.1-0.2l-0.6-7.8c0-0.1,0-0.1-0.1-0.1l-0.6-0.9c-4.9,5.9-7.1,10.9-4.3,13.3
		c2.3,2,6.2,1.9,11,0.4c0,0,0,0,0,0L118.5,522.1z"/>
	<path class="st28" d="M159.4,481.2l5-3.4c0.1-0.1,0.2-0.1,0.3,0c1.3,0.4,11.5,3.7,10.2,9.2c0,0,0,0,0,0c2.7-4.4,3.7-8.1,2.2-10.5
		c-1.9-3.1-9.6-0.7-19,4.5l1.1,0.2C159.3,481.2,159.4,481.2,159.4,481.2z"/>
	<path class="st29" d="M121.5,508.3C121.5,508.3,121.5,508.3,121.5,508.3l-5,3.4c-0.1,0.1-0.2,0.3-0.1,0.4l0.7,1
		C118.4,511.5,119.9,509.9,121.5,508.3z"/>
	<path class="st29" d="M150.6,479.4c-0.1,0-0.2-0.2-0.2-0.3v-3.8c0-0.1-0.1-0.2-0.1-0.3l-5.5-3.5c0,0-0.1,0-0.1,0l-9.3-0.6
		c-0.1,0-0.1,0-0.2,0l-7.9,5c0,0-0.1,0.1-0.1,0.1l-0.6,1.3c0,0.1,0,0.1,0,0.2l1.9,5.9c0,0.1,0,0.2-0.1,0.3l-4.3,6.5
		c-0.1,0.1-0.1,0.3,0,0.4l5,4.4c0.1,0,0.1,0.1,0.1,0.2l0.5,1.8c0,0.2-0.1,0.3-0.2,0.4l-4.6,0.9c-0.2,0-0.3,0.2-0.2,0.3l0.5,6.2
		c9.5-8.8,22.5-18.2,33.1-24L150.6,479.4z"/>
	<path class="st29" d="M174.8,487C174.9,487,174.8,487,174.8,487c1.4-5.5-8.8-8.8-10.1-9.2c-0.1,0-0.2,0-0.3,0l-5,3.4
		c-0.1,0-0.2,0.1-0.2,0l-1.1-0.2c-10.7,5.8-23.6,15.2-33.1,24l0.2,2.1c0,0.1-0.1,0.3-0.2,0.3l-3.3,0.8c0,0,0,0-0.1,0
		c-1.6,1.7-3.1,3.3-4.4,4.8l0.6,0.9c0,0,0,0.1,0.1,0.1l0.6,7.8c0,0.1,0,0.2,0.1,0.2l5.3,4.7c0,0,0,0,0,0
		C139.9,521.9,166.2,501.1,174.8,487z"/>
	<path class="st30" d="M129.4,490.6c0,0,1.3-4.3,1.3-4.6c0-0.3,0.4-1.3,0.4-1.3l1.2-0.6c0,0,1.3-0.5,1.3-0.7c0-0.2,0-2,0-2l-2.1-2.7
		v-1.1h2.7l1.9-1.1l1.9-0.9h1.7l0.4,3.1l6.1,0.1v-0.9l1.3-1.5v-1.7l-3.5-0.8l-2.3-1.1h-6.3l-1.9,1.3l-2.3,1.3l-2.5,2v2.1l1.6,2.7
		l-1.2,1.9l-1.3,2.3l-2.4,2.8L129.4,490.6z"/>
	<polygon class="st30" points="146.5,483.1 146.7,485 147.6,485.9 147.6,487.8 140.3,487.8 138.6,488.6 137.7,489.9 137.7,492.7 
		133.6,492.7 133.8,489.6 136,485.4 137.8,483.4 	"/>
	<path class="st30" d="M142.9,498.7l5.9,2.4v6.9l-1.2,1.2l-1.5,2.1c0,0-14-2.8-14.2-2.8s-4-0.1-4-0.1v-6.9l9.7,2.3l3,0.4l2.1-2.7
		L142.9,498.7z"/>
	<polygon class="st31" points="153.3,489.7 154.4,493.4 157.4,492.7 160.6,494.9 162.7,500 166.8,495.9 162.8,491.8 162.1,488.1 
		155.1,488.9 	"/>
	<path class="st31" d="M169,492.4c0-0.2-0.7-1.8-0.7-1.8l2.3-1.9l-1.1-2.5l-3.4-4.1l-2.5,2.3c0,0-1.2,1.5-1.4,1.5s-3.2-1.2-3.5-1.2
		c-0.3,0-4.3-0.3-4.3-0.3L153,485v-4.2l6.5,1.4l3.1-1.7l2.4-1.6l6.3,3.8l2.6,4.9L169,492.4z"/>
	<polygon class="st31" points="120.6,514.7 130.2,514.7 132.2,520.7 126.4,524.3 120.6,516.1 	"/>
	<path class="st32" d="M133.6,522.6l-20.3,4.2l63.9,55c1.9,1.6,4.4,2.1,6.8,1.3c7.3-2.5,13.8-5.8,19.4-9.9
		C203.3,573.2,170.7,563.6,133.6,522.6z"/>
</g>
<g id="impressora">
	<path d="M514.8,559.6l9.9-0.4c1.1,0,2-1,1.9-2.2l-1.7-17c-0.1-1-1-1.8-2-1.8l-9.4,0.4c-1.1,0-2,1-1.9,2.1l1.1,17
		C512.9,558.8,513.8,559.6,514.8,559.6z"/>
	<path class="st33" d="M506.9,542.4l1.7,21.2c0.1,0.9,0.9,1.6,1.8,1.5l1.9-0.2c0.8-0.1,1.4-0.8,1.4-1.7l-1-21.3
		c0-0.9-0.9-1.6-1.8-1.5l-2.6,0.4C507.4,540.8,506.8,541.5,506.9,542.4z"/>
	<path class="st33" d="M524.4,541.4l1.7,21.2c0.1,0.9,0.9,1.6,1.8,1.5l1.9-0.2c0.8-0.1,1.4-0.8,1.4-1.7l-1-21.3
		c0-0.9-0.9-1.6-1.8-1.5l-2.6,0.4C524.9,539.8,524.3,540.5,524.4,541.4z"/>
	<path d="M330.8,577.4l9.9-0.4c1.1,0,2-1,1.9-2.2l-1.7-17c-0.1-1-1-1.8-2-1.8l-9.4,0.4c-1.1,0-2,1-1.9,2.1l1.1,17
		C328.9,576.7,329.8,577.5,330.8,577.4z"/>
	<path class="st33" d="M322.9,560.2l1.7,21.2c0.1,0.9,0.9,1.6,1.8,1.5l1.9-0.2c0.8-0.1,1.4-0.8,1.4-1.7l-1-21.3
		c0-0.9-0.9-1.6-1.8-1.5l-2.6,0.4C323.4,558.6,322.8,559.4,322.9,560.2z"/>
	<path class="st33" d="M340.4,559.2l1.7,21.2c0.1,0.9,0.9,1.6,1.8,1.5l1.9-0.2c0.8-0.1,1.4-0.8,1.4-1.7l-1-21.3
		c0-0.9-0.9-1.6-1.8-1.5l-2.6,0.4C340.9,557.6,340.3,558.4,340.4,559.2z"/>
	<path class="st34" d="M481.8,169.1l-12.4,3.3c-0.2,0-0.3,0.2-0.3,0.3l-2.9,8.3c-0.1,0.2-0.2,0.3-0.3,0.3l-157.2,40.9
		c-0.5,0.1-0.5,0.8-0.1,0.9l38,17.2c0.1,0.1,0.3,0.1,0.4,0l131-48.6c0.2-0.1,0.3-0.2,0.3-0.4l4.2-21.7
		C482.5,169.3,482.1,169,481.8,169.1z"/>
	<path class="st35" d="M346.9,212.4c-2.5,9.6,6.3,19.8,25.7,12.7c28.2-10.3,106.9-40.3,106.9-40.3l-1.6,7.1l-131.4,48.6l-38-17.2
		L346.9,212.4z"/>
	<path class="st34" d="M266.3,228.4c-0.2-1.4,0.6-2.6,2-3c12.4-3.1,69.6-17.3,72.9-18c3.6-0.8,3.6,1.4,0,5.2
		c-5.8,6-2.2,28.8,13.8,27.6c17.9-1.3,124.3-11.1,138.6-12.5c1-0.1,1.9,0.4,2.5,1.2l4,6.3l-229.3,21.4L266.3,228.4z"/>
	<polygon class="st36" points="494.1,293.1 515.7,311.9 363.7,324.3 368.9,297.1 	"/>
	<path class="st37" d="M489.9,246.5l4.2,46.5c0,0-75.7,8.8-85.3,10.1c-9.6,1.3-30.7,0.3-45.1,21.1l-11-67.6l138.5-14.8L489.9,246.5z
		"/>
	<path class="st38" d="M360.2,289.1c0,0-6.6-32.4-5.3-32.4c1.3,0,134.7-10.1,134.7-10.1l1.3,14.3c0,0-77.3,5.1-100,10.4
		C368.3,276.5,364.5,280.7,360.2,289.1z"/>
	<path class="st39" d="M518.6,235.6l0.5,6.1c0.1,1.1-0.7,2-1.8,2.1l-157.9,15.7c-1.2,0.1-2.1,1.2-2,2.4l6.2,62.4l-86.6,9l-6.4-76.6
		l245.7-22.9C517.6,233.7,518.5,234.5,518.6,235.6z"/>
	<circle class="st40" cx="288.4" cy="262.7" r="2.5"/>
	<circle class="st41" cx="296.7" cy="261.9" r="2.5"/>
	<circle class="st42" cx="288.9" cy="269.3" r="2.5"/>
	<circle class="st43" cx="297.2" cy="268.5" r="2.5"/>
	<path class="st44" d="M321.7,261.3l-15.6,1c-0.6,0-1.1-0.4-1.1-1l-0.1-2c0-0.6,0.4-1.1,1-1.1l15.6-1c0.6,0,1.1,0.4,1.1,1l0.1,2
		C322.7,260.8,322.3,261.3,321.7,261.3z"/>
	<path class="st44" d="M322.1,268.4l-15.6,1c-0.6,0-1.1-0.4-1.1-1l-0.1-2c0-0.6,0.4-1.1,1-1.1l15.6-1c0.6,0,1.1,0.4,1.1,1l0.1,2
		C323.1,267.8,322.7,268.3,322.1,268.4z"/>
	<path class="st45" d="M342.3,260l-15.6,1c-0.6,0-1.1-0.4-1.1-1l-0.1-2c0-0.6,0.4-1.1,1-1.1l15.6-1c0.6,0,1.1,0.4,1.1,1l0.1,2
		C343.4,259.4,342.9,259.9,342.3,260z"/>
	<path class="st46" d="M342.8,267.1l-15.6,1c-0.6,0-1.1-0.4-1.1-1l-0.1-2c0-0.6,0.4-1.1,1-1.1l15.6-1c0.6,0,1.1,0.4,1.1,1l0.1,2
		C343.8,266.5,343.4,267,342.8,267.1z"/>
	<path class="st47" d="M351.2,316.9l-63.1,6.1c-0.9,0.1-1.7-0.6-1.8-1.5l-4.2-42.1c-0.1-0.9,0.6-1.7,1.5-1.8l63.5-6.4
		c0.9-0.1,1.7,0.6,1.8,1.5l3.7,42.4C352.8,316,352.1,316.8,351.2,316.9z"/>
	<path class="st48" d="M349.5,315.9l-59.9,5.8c-0.9,0.1-1.6-0.5-1.7-1.4l-4-40c-0.1-0.9,0.5-1.6,1.4-1.7l60.3-6.1
		c0.9-0.1,1.7,0.6,1.7,1.4l3.5,40.2C351,315,350.3,315.8,349.5,315.9z"/>
	<path class="st37" d="M327.3,277.2h15.4c0.4,0,0.8,0.3,0.9,0.7c0.7,2.2,2.6,9.7,3.2,24.2C346.8,302.1,341.1,281.6,327.3,277.2z"/>
	<path class="st49" d="M314.3,281.2l-13.9,31c-0.8,1.7,0.6,3.5,2.4,3.4l33.9-3.4c1.8-0.2,2.8-2.3,1.7-3.8l-19.9-27.6
		C317.4,279.3,315.1,279.5,314.3,281.2z"/>
	<path class="st50" d="M315.9,283.8l-12.5,27.9c-0.3,0.6,0.2,1.4,0.9,1.3l30.4-3.1c0.7-0.1,1.1-0.9,0.7-1.5l-17.9-24.8
		C317.1,283.1,316.2,283.2,315.9,283.8z"/>
	<path class="st49" d="M318.8,303.8L318.8,303.8c-0.6,0.1-1.2-0.4-1.2-0.9l-1.3-12.3c-0.1-0.6,0.4-1.1,0.9-1.1l0.1,0
		c0.6-0.1,1.1,0.4,1.1,0.9l1.3,12.3C319.8,303.2,319.4,303.7,318.8,303.8z"/>
	<circle class="st49" cx="319.2" cy="307.7" r="1.6"/>
	<path class="st1" d="M378.4,308.7c0.1-0.2,0.3-0.3,0.5-0.3c4-0.4,44.2-4.5,79-10.1c30.4-4.9,37.9-5.2,39.6-5.2
		c0.3,0,0.5,0.2,0.6,0.4c0.6,1.4,2.6,6.1,4.6,9.4c0.2,0.4,0,0.9-0.5,1c-7.4,0.8-51.6,5.4-66,6.8c-15.2,1.5-49.9,5-60.2,5.7
		c-0.5,0-0.8-0.4-0.7-0.9C375.7,314,376.8,311.1,378.4,308.7z"/>
	<path class="st51" d="M277.1,333.3l247.9-25.1c2.6-0.3,4.9,1.7,5,4.3l11.4,222.9c0.1,2-1.4,3.8-3.4,4l-223.9,22.5
		c-2,0.2-3.9-1.2-4.2-3.3L277.1,333.3z"/>
	<path class="st52" d="M322.9,328.6L322.9,328.6l-45.8,4.6L310,558.6c0.3,2,2.1,3.5,4.2,3.3l73.4-7.4l0,0
		C311.9,459.2,322.9,328.6,322.9,328.6z"/>
	<polygon class="st53" points="280.6,357 531.2,334.4 531.2,337.1 280.9,359.2 	"/>
	<polygon class="st53" points="290.8,426.9 534.6,400.2 534.7,402.7 291.2,429.6 	"/>
	<polygon class="st53" points="295.1,456.6 536.3,433.7 536.4,435.4 295.5,459.1 	"/>
	<polygon class="st53" points="538.2,469.5 538.1,467.2 299.5,486.7 299.8,489 425.8,478.7 432.4,550 434.5,549.8 427.9,478.5 	"/>
	<circle class="st54" cx="313.7" cy="392.7" r="9.2"/>
	<path class="st54" d="M441.4,425.3l-43.5,4.4c-1.2,0.1-2.2-0.7-2.4-1.9l-0.2-2.1c-0.1-1.2,0.7-2.2,1.9-2.4l43.5-4.4
		c1.2-0.1,2.2,0.7,2.4,1.9l0.2,2.1C443.4,424.1,442.6,425.2,441.4,425.3z"/>
	<path class="st54" d="M444.4,458.5l-43.5,4.4c-1.2,0.1-2.2-0.7-2.4-1.9l-0.2-2.1c-0.1-1.2,0.7-2.2,1.9-2.4l43.5-4.4
		c1.2-0.1,2.2,0.7,2.4,1.9l0.2,2.1C446.4,457.3,445.6,458.4,444.4,458.5z"/>
	<path class="st54" d="M506.4,486.1l-43.5,4.4c-1.2,0.1-2.2-0.7-2.4-1.9l-0.2-2.1c-0.1-1.2,0.7-2.2,1.9-2.4l43.5-4.4
		c1.2-0.1,2.2,0.7,2.4,1.9l0.2,2.1C508.4,484.9,507.6,486,506.4,486.1z"/>
	<path class="st54" d="M388.6,496.4l-43.5,4.4c-1.2,0.1-2.2-0.7-2.4-1.9l-0.2-2.1c-0.1-1.2,0.7-2.2,1.9-2.4l43.5-4.4
		c1.2-0.1,2.2,0.7,2.4,1.9l0.2,2.1C390.6,495.2,389.8,496.3,388.6,496.4z"/>
	<path class="st55" d="M531.9,347.7l2,38.8l-27.3,1.6c-2.2,0.1-4-1.5-4.2-3.6l-2.5-30.1c-0.2-2.2,1.5-4.1,3.7-4.3L531.9,347.7z"/>
	<path class="st56" d="M297.4,189.4c-2.8,0.7,1.3,13.2,3.1,12.8C302.3,201.8,299.9,188.7,297.4,189.4z"/>
	<path class="st56" d="M327.3,186c-2.4-1.6-8.7,10-7.2,11C321.6,198,329.5,187.4,327.3,186z"/>
	<path class="st56" d="M271.3,198.3c-2.2,1.9,7,11.3,8.4,10.1S273.3,196.6,271.3,198.3z"/>
</g>
</svg>
