<?xml version="1.0" encoding="utf-8"?>
<!-- Generator: Adobe Illustrator 27.4.0, SVG Export Plug-In . SVG Version: 6.00 Build 0)  -->
<svg version="1.1" id="Camada_1" xmlns="http://www.w3.org/2000/svg" xmlns:xlink="http://www.w3.org/1999/xlink" x="0px" y="0px"
	 viewBox="0 0 1011.2 985.6" style="enable-background:new 0 0 1011.2 985.6;" xml:space="preserve">
<style type="text/css">
	.st0{fill:#E56620;}
	.st1{fill:#FFFFFF;}
	.st2{fill:#E3FEFF;}
	.st3{fill:#FEFEFE;}
	.st4{fill:#E4F7F8;}
	.st5{fill:#D1EBF5;}
	.st6{fill:#D3EBF7;}
	.st7{fill:#FAFEFD;}
	.st8{fill:#D4EAF7;}
	.st9{fill:#DEF3F7;}
	.st10{fill:#E1F4F6;}
	.st11{fill:#E2F6F8;}
	.st12{fill:#DFF6F7;}
	.st13{fill:#FDFFFE;}
	.st14{fill:#E0F7F8;}
	.st15{fill:#E1F5F6;}
	.st16{fill:#C1DBE7;}
	.st17{fill:#C5DCEA;}
	.st18{fill:#BFD9E5;}
	.st19{fill:#C7DAE4;}
	.st20{fill:#E1F7F7;}
	.st21{fill:#BDD8EB;}
	.st22{fill:#BCD8EA;}
	.st23{fill:#BDD9E8;}
	.st24{fill:#C2D9E2;}
	.st25{fill:#BFD8E7;}
	.st26{fill:#E1F3F5;}
	.st27{fill:#3B4759;}
	.st28{fill:#333F4A;}
	.st29{fill:#FEFEFF;}
	.st30{fill:#E0F7F6;}
	.st31{fill:#E7F4F5;}
	.st32{fill:#353E50;}
	.st33{fill:#1C2A2F;}
	.st34{fill:#3D4659;}
	.st35{fill:#2D3F4C;}
	.st36{fill:#1A1C28;}
	.st37{fill:#40576F;}
	.st38{fill:#2B333B;}
	.st39{fill:#5A7284;}
	.st40{fill:#ECBE3B;}
	.st41{fill:#CC4512;}
	.st42{fill:#96C34D;}
	.st43{fill:#384559;}
	.st44{fill:#3A4558;}
	.st45{fill:#9AC53D;}
	.st46{fill:#C33641;}
	.st47{fill:#73959D;}
	.st48{fill:#222938;}
	.st49{fill:#3F5467;}
	.st50{opacity:0.5;fill:#313B45;}
	.st51{fill:#23283B;}
	.st52{fill:#313A45;}
	.st53{fill:#313B45;}
	.st54{fill:#E0FEFD;}
</style>
<g id="background">
	<path class="st0" d="M995.2,532.4c47.8,268.5-313,359.8-581.1,409.6C205,980.8,16.5,992,16.5,718.4c0-272.7,37.6-727.5,309-700.8
		C585.7,43.2,956.8,316.8,995.2,532.4z"/>
</g>
<image style="display:none;overflow:visible;" width="1030" height="772" id="img" xlink:href="../../../../printer-1030x772.jpg"  transform="matrix(1 0 0 1 -24.4 72.2)">
</image>
<g id="papeis">
	<polygon class="st1" points="563.8,544.2 612.1,542 631.7,548.4 622.2,779.4 559.8,779.3 	"/>
	<path id="_x31__00000027563523627156605500000001489083661795429507_" class="st1" d="M174.7,478.7l11.2,33.4
		c0.4,1.1,1.4,1.7,2.6,1.6c7.8-1,37.5-3.6,51.8,14.4c0.4,0.5,1.1,0.7,1.6,0.3l1.9-1c1.2-0.6,1.8-1.9,1.6-3.2
		c-1.5-10.5-11.5-55-68.7-48.7C175.2,475.7,174.2,477.3,174.7,478.7z"/>
	<path id="_x32__00000017481243056511987410000006251886753408678320_" class="st2" d="M342.3,333.6l34.4,15.6
		c0.7,0.3,1.5,0.1,2-0.6l31.7-51.3c0.5-0.8,0.2-1.9-0.7-2.2l-42.5-18.3c-0.8-0.3-1.7,0-2,0.8l-23.6,54
		C341.2,332.4,341.6,333.3,342.3,333.6z"/>
	<path id="_x33__00000077309968232358595280000014360366460051192493_" class="st3" d="M466.1,314.2l15-11.8c0.3-0.2,0.6-0.4,1-0.4
		c5.6-0.5,52.9-3.8,72.5,29.2c0.6,1,0.1,2.4-1.1,2.8l-36.3,11.4c-0.9,0.3-1.8-0.1-2.2-0.9c-9.5-17.4-20-22.1-48.1-26.9
		C465.3,317.2,464.8,315.2,466.1,314.2z"/>
	<path id="_x34__00000101810751322358653540000006581096486159528081_" class="st4" d="M575.9,243l13.3,8.8c0.1,0.1,0.3,0.1,0.5,0.2
		c3.3,0.3,39,2.4,54.1-26.6c0.3-0.6,0-1.3-0.7-1.4c-5.1-1.1-24-5.3-29.5-6.7c-0.5-0.1-1.1,0.2-1.2,0.7c-0.9,3.9-6.4,18.6-36.2,23.2
		C575.4,241.3,575.2,242.5,575.9,243z"/>
	<g id="_x35_">
		<path class="st1" d="M593.2,363.7c-3.9,13.6-9.7,55.1-54.8,58.4c-1,0.1-1.1,1.6-0.1,1.7c13.7,2.1,41,4.8,54.4-6.7
			c16.2-13.9,22.4-34.9,23.7-39.7c0.2-0.6-0.1-1.2-0.6-1.6l-20.5-13.2C594.5,362.2,593.5,362.7,593.2,363.7z"/>
		<path class="st5" d="M541.5,415.7c3.2,0.8,48.3,11,63.2-12.4c0,0-20.9,45.6-89.3,25.1c-0.5-0.2-0.6-0.9-0.1-1.1l25.8-11.5
			C541.3,415.7,541.4,415.7,541.5,415.7z"/>
	</g>
	<g id="_x36_">
		<path class="st1" d="M754.1,350.1l12.3,10.9c0.2,0.2,0.3,0.5,0.1,0.7c-1.3,2.7-9.4,18.5-21.4,25.5c-13.1,7.7-50.9-8.4-25.9-6.6
			c22,1.6,32.1-25,33.8-30.2C753.2,349.9,753.8,349.8,754.1,350.1z"/>
		<path class="st6" d="M717.8,373.9l-20.9,1.8c-0.6,0-0.9,0.7-0.5,1.2c2.9,3.7,13.7,15.7,31,15.2c17.3-0.5,26.2-11.7,26.2-11.7
			s-23.6,6.9-35.1-6.2C718.3,374,718,373.9,717.8,373.9z"/>
	</g>
	<g id="_x37_">
		<path class="st7" d="M778.8,492.7l-21,14.2c-0.6,0.4-0.8,1.1-0.5,1.7c1.6,3.4,7.6,13.9,21.9,22.5c17.3,10.4,32.7,1.2,32.7,1.2
			s-27.3,1-31-38.6C780.8,492.6,779.7,492.1,778.8,492.7z"/>
		<path class="st8" d="M834,518.7c0,0,1.1,17.4-8.8,26.1c-4.5,4-41.9-1.5-60-25.1C765.2,519.7,795.7,534,834,518.7z"/>
	</g>
	<path id="_x38__00000106858510366879317450000001821890857841135016_" class="st9" d="M726.4,637.8L715,667.5
		c-0.1,0.2,0,0.4,0.2,0.4c2.8,1.1,24.2,7.6,53.6-27.6c0.1-0.1,0.1-0.1,0.1-0.2v-18.4c0-0.3-0.4-0.5-0.6-0.2
		c-11.1,13.1-26.5,22.1-41.5,16.2C726.6,637.6,726.4,637.6,726.4,637.8z"/>
	<g id="_x39_">
		<path class="st3" d="M465.7,768.8l19.1,6c1,0.3,1.8,1.1,2.1,2.1l6.3,20c0.4,1.2,0,2.6-1,3.4l-10.6,8.4c-0.5,0.4-1.2,0.7-1.9,0.7
			h-20.9c-1.2,0-2.3-0.7-2.8-1.8c-6-6.2-9.7-14.2-11.1-23.9c-0.4-0.9-0.4-1.8,0-2.7l3.5-7c0.7-1.3,2.2-2,3.6-1.6l5.2,1.5
			c1.2,0.3,2.5-0.1,3.2-1l2.1-2.9C463.2,768.8,464.5,768.4,465.7,768.8z"/>
		<path class="st10" d="M477.7,779.9l-4,2c-0.5,0.2-1,0.1-1.3-0.3l-6.3-8.9c-0.4-0.6-1.3-0.6-1.7,0l-2.6,3.6c-0.3,0.4-0.3,0.9,0,1.3
			l11.4,14c0.4,0.5,1,0.5,1.5,0.2l6.5-5.3c0.4-0.3,0.5-0.8,0.3-1.3l-2.3-4.7C478.9,779.8,478.2,779.6,477.7,779.9z"/>
		<path class="st10" d="M457.7,782.5c-1.4-0.7-4.1-2.2-5.8-3.1c-0.8-0.4-1.7,0.1-1.7,1l-0.3,11.2c0,0.2,0,0.4,0.1,0.6l5.9,11.2
			c0.2,0.4,0.6,0.6,1,0.6h5.5c0.1,0,0.2,0,0.3-0.1l5.1-1.6c0.2-0.1,0.5-0.1,0.7,0l8.4,2.7c0.3,0.1,0.6,0.1,0.8,0
			c2.1-1,11.3-5.3,11.4-5.5c0-0.1-0.1-1.9-0.3-3.8c-0.1-1.3-1.9-1.4-2.2-0.2l-0.6,2.1c-0.1,0.3-0.3,0.6-0.7,0.7l-7.4,3
			c-0.5,0.2-1,0.1-1.3-0.3l-6.2-7.1c-0.5-0.5-1.3-0.5-1.8,0.1l-3.5,4.8c-0.2,0.2-0.4,0.4-0.7,0.4c-1.4,0.2-5.6,0.9-5.6,0.7
			c0-0.2-3-9.3-2.9-9.5c0.1-0.2,1.6-4.3,2.4-6.2C458.4,783.4,458.2,782.8,457.7,782.5z"/>
		<path class="st3" d="M766.1,738l-2,5.2c-0.3,0.7-0.9,1.3-1.6,1.6l-9.4,3.2c-1.3,0.4-2,1.8-1.7,3.1c0.6,2.7,1.6,7.4,1.8,11.4
			c0,0.6,0.3,1.2,0.7,1.7c1.8,1.9,7.1,7.3,11.1,9.7c1,0.6,2.2,0.4,3-0.3l3.3-2.8c0.7-0.6,1.6-0.8,2.5-0.5l12,3.8
			c1.3,0.4,2.6-0.2,3.2-1.4l8-17.7c0.3-0.6,0.3-1.2,0.1-1.8c-0.8-2.4-3.5-9-12.4-15.5c-0.4-0.3-0.9-0.5-1.4-0.5l-14.6-0.8
			C767.5,736.2,766.5,736.9,766.1,738z"/>
		<polygon class="st11" points="784.5,767.2 785.4,760.2 775,756 774.3,752.4 762,760.4 766.2,764.5 770.4,760.1 		"/>
		<path class="st12" d="M759.7,753.9c-0.4,0.4-1,0.4-1.4,0c-1.3-1.4-4-4.3-3.8-4.4c0.2-0.2,7-2.4,7.3-2.4s4.1-0.1,4.2-0.4
			c0.1-0.2,2.7-6.4,3.6-8.5c0.2-0.4,0.6-0.7,1.1-0.6l12.7,1.7c0.2,0,0.5,0.2,0.6,0.3l10.2,12c0.4,0.4,0.3,1.1-0.2,1.4l-2.8,2.1
			c-0.3,0.2-0.7,0.3-1.1,0.1l-7.4-3.9c-0.4-0.2-0.6-0.7-0.5-1.1c0.3-1.3,0.9-4,1-4.2c0-0.2-6.8-3.3-9.5-4.6
			c-0.6-0.3-1.2,0.1-1.4,0.6l-1.7,6.3c-0.1,0.4-0.4,0.7-0.8,0.7l-5.9,0.9c-0.2,0-0.4,0.1-0.5,0.3L759.7,753.9z"/>
	</g>
	<g id="pilha_2">
		<polygon class="st13" points="603.1,589.4 602.3,615.5 599.7,615.5 599.7,670.3 601.4,670.9 596.4,696.3 593.2,696.3 591.7,736.1 
			594.4,736.1 594.5,759.8 593.5,759.8 592.8,779.4 500,779.4 489.2,727.1 498.5,588.2 		"/>
		<path class="st14" d="M640.5,592.8v23.4h-2c0,0,1.2,58.4-2.2,80.6l-3.4,2.8l-0.7,37h-2.3v24.5h-2.6v18.3h-34.5l0.7-20l-60.3-2
			h61.4l-0.1-20.9l-2.7-0.5l1.5-39.7l2.3-0.1l6-25.2l-52,0.4l50-3.3l0.1-18.3l-44.5-0.5l44.4-2.1l0.3-32.1l2.4-0.3l-0.1-10.4
			l-64.1,0.6l64.4-2.6l0.3-12.6l4.9,0.3L640.5,592.8z"/>
		<polygon class="st13" points="612.1,542 527.9,545.8 529,589 607.7,590.1 		"/>
		<polygon class="st15" points="612.1,542 609.8,567.4 534.8,569.8 609.6,569.8 607.7,590.1 643.7,593.1 647.5,553.6 		"/>
		<path class="st16" d="M646.7,562.6l-24.3-4.1c-0.2,0-0.2,0.2-0.1,0.3l24,6.9L646.7,562.6z"/>
		<path class="st16" d="M644.2,588.4l-24.6-2.4c-0.3,0-0.4,0.4-0.1,0.5l24.3,5.8L644.2,588.4z"/>
		<path class="st17" d="M602.9,593.5l26.1-0.7c0.2,0,0.2-0.2,0-0.2l-26-1.1L602.9,593.5z"/>
		<path class="st17" d="M599.7,663.4l26.2-0.7c0.2,0,0.2-0.2,0-0.2l-26.1-1.1L599.7,663.4z"/>
		<path class="st17" d="M591.9,731l26.6-0.8c0.2,0,0.2-0.2,0-0.2l-26.5-1.1L591.9,731z"/>
		<path class="st18" d="M638.7,637l-23.6,0.6c-0.3,0-0.3,0.4,0,0.5l23.6,2.1V637z"/>
		<polygon class="st19" points="636.3,696.8 608.8,696.5 632.9,699.6 		"/>
	</g>
	<g id="pilha_1">
		<polygon class="st3" points="287.3,575 227.5,575 228.2,616.6 222.5,619.7 223.9,691.4 229.7,700.2 229.2,745 226.8,749.8 
			226.8,779.4 330.7,779.4 		"/>
		<polygon class="st20" points="227.5,575 185.8,578.1 189.7,617.4 187.3,622.4 190.3,692.6 194.9,695.4 197.2,779.4 226.8,779.4 
			226.8,750.9 281.9,750.1 229.2,745 229.7,700.2 281.9,696.2 224.7,692.6 223.9,691.4 223.1,651.1 294.7,647.3 223,646.2 
			222.5,619.7 230,616.7 229,600 286.3,596.1 228,595.4 		"/>
		<path class="st21" d="M227.5,575c0,0-37.9-0.5-39.7-0.5c-4.9,0-10.7,9.3-9.9,14.3c0,0.2,0.3,0.4,0.5,0.3
			C185.2,583.9,214.5,576,227.5,575z"/>
		<polygon class="st22" points="188,600.4 219.4,600.4 188.5,605.2 		"/>
		<path class="st23" d="M222.5,620.4l0.1,3.1l-28.1-0.5c-0.2,0-0.2-0.2,0-0.2L222.5,620.4z"/>
		<path class="st24" d="M189,661.4l12.9,0.4c0.2,0,0.2,0.2,0,0.2l-12.9,1.6L189,661.4z"/>
		<path class="st25" d="M202.3,675.6l-4.5,4.8c-0.3,0.3-0.1,0.9,0.4,0.9l21.4-0.7c0.2,0,0.4-0.1,0.5-0.3l1.7-4.1
			c0.1-0.3-0.1-0.7-0.5-0.7h-18.6C202.5,675.5,202.3,675.5,202.3,675.6z"/>
		<path class="st25" d="M190.3,692.6h23.9c0.1,0,0.1,0.2,0,0.2l-19.3,2.6L190.3,692.6z"/>
		<path class="st25" d="M229.5,721.4h-19.8c-0.1,0-0.2,0.2,0,0.2l19.8,3.6V721.4z"/>
		<path class="st26" d="M254.1,659.8l43-1.2c0,0-12.6,5.2-16.8,5.2C276.1,663.8,254.1,659.8,254.1,659.8z"/>
		<polygon class="st26" points="289.2,588.2 267.5,588.2 291.5,591.3 		"/>
		<polygon class="st26" points="266,621.7 293.9,621 293.9,624.7 		"/>
		<polygon class="st26" points="310.8,754.8 267.1,756.2 316.9,757.4 		"/>
	</g>
</g>
<g id="lixo">
	<path class="st27" d="M179.1,681.3l43.2,69.4c1.3,2.1,1.4,4.6,0.3,6.8c-7.5,14.8-19.9,24.8-36.6,30.4c-2.3,0.8-4.9,0.3-6.8-1.3
		l-64.4-55.5L179.1,681.3z"/>
	<path class="st28" d="M126.9,712.1c0.1,0,0.2-0.2,0.2-0.3l-0.2-2.1c-1.2,1.1-2.3,2.2-3.4,3.3c0,0,0,0,0.1,0L126.9,712.1z"/>
	<path class="st28" d="M120.5,726.9c-0.1-0.1-0.1-0.1-0.1-0.2l-0.6-7.8c0-0.1,0-0.1-0.1-0.1l-0.6-0.9c-4.9,5.9-7.1,10.9-4.3,13.3
		c2.3,2,6.2,1.9,11,0.4c0,0,0,0,0,0L120.5,726.9z"/>
	<path class="st28" d="M161.4,685.9l5-3.4c0.1-0.1,0.2-0.1,0.3,0c1.3,0.4,11.5,3.7,10.2,9.2c0,0,0,0,0,0c2.7-4.4,3.7-8.1,2.2-10.5
		c-1.9-3.1-9.6-0.7-19,4.5l1.1,0.2C161.3,686,161.4,686,161.4,685.9z"/>
	<path class="st29" d="M166.7,682.5c-0.1,0-0.2,0-0.3,0l-5,3.4c-0.1,0-0.2,0.1-0.2,0l-1.1-0.2l-7.5-1.6c-0.1,0-0.2-0.2-0.2-0.3V680
		c0-0.1-0.1-0.2-0.1-0.3l-5.5-3.5c0,0-0.1,0-0.1,0l-9.3-0.6c-0.1,0-0.1,0-0.2,0l-7.9,5c0,0-0.1,0.1-0.1,0.1l-0.6,1.3
		c0,0.1,0,0.1,0,0.2l1.9,5.9c0,0.1,0,0.2-0.1,0.3l-4.3,6.5c-0.1,0.1-0.1,0.3,0,0.4l5,4.4c0.1,0,0.1,0.1,0.1,0.2l0.5,1.8
		c0,0.2-0.1,0.3-0.2,0.4l-4.6,0.9c-0.2,0-0.3,0.2-0.2,0.3l0.5,6.2l0.2,2.1c0,0.1-0.1,0.3-0.2,0.3l-3.3,0.8c0,0,0,0-0.1,0
		c0,0,0,0,0,0l-5,3.4c-0.1,0.1-0.2,0.3-0.1,0.4l0.7,1l0.6,0.9c0,0,0,0.1,0.1,0.1l0.6,7.8c0,0.1,0,0.2,0.1,0.2l5.3,4.7c0,0,0,0,0,0
		c16.1-4.9,42.4-25.8,51.1-39.8c0,0,0,0,0,0C178.2,686.2,168,682.9,166.7,682.5z"/>
	<path class="st30" d="M131.4,695.3c0,0,1.3-4.3,1.3-4.6c0-0.3,0.4-1.3,0.4-1.3l1.2-0.6c0,0,1.3-0.5,1.3-0.7s0-2,0-2l-2.1-2.7v-1.1
		h2.7l1.9-1.1l1.9-0.9h1.7l0.4,3.1l6.1,0.1v-0.9l1.3-1.5v-1.7l-3.5-0.8l-2.3-1.1h-6.3l-1.9,1.3l-2.3,1.3l-2.5,2v2.1l1.6,2.7
		l-1.2,1.9l-1.3,2.3l-2.4,2.8L131.4,695.3z"/>
	<polygon class="st30" points="148.5,687.9 148.7,689.8 149.6,690.6 149.6,692.5 142.3,692.5 140.6,693.4 139.7,694.6 139.7,697.4 
		135.6,697.4 135.8,694.3 138,690.2 139.8,688.2 	"/>
	<path class="st30" d="M144.9,703.5l5.9,2.4v6.9l-1.2,1.2l-1.5,2.1c0,0-14-2.8-14.2-2.8s-4-0.1-4-0.1v-6.9l9.7,2.3l3,0.4l2.1-2.7
		L144.9,703.5z"/>
	<polygon class="st31" points="155.3,694.4 156.4,698.1 159.4,697.4 162.6,699.7 164.7,704.7 168.8,700.6 164.8,696.5 164.1,692.9 
		157.1,693.6 	"/>
	<path class="st31" d="M171,697.1c0-0.2-0.7-1.8-0.7-1.8l2.3-1.9l-1.1-2.5l-3.4-4.1l-2.5,2.3c0,0-1.2,1.5-1.4,1.5
		c-0.2,0-3.2-1.2-3.5-1.2c-0.3,0-4.3-0.3-4.3-0.3l-1.3,0.6v-4.2l6.5,1.4l3.1-1.7l2.4-1.6l6.3,3.8l2.6,4.9L171,697.1z"/>
	<polygon class="st31" points="122.6,719.5 132.2,719.5 134.2,725.4 128.4,729 122.6,720.8 	"/>
	<path class="st32" d="M135.6,727.3l-20.3,4.2l63.9,55c1.9,1.6,4.4,2.1,6.8,1.3c7.3-2.5,13.8-5.8,19.4-9.9
		C205.3,778,172.7,768.3,135.6,727.3z"/>
</g>
<g id="impressora">
	<path d="M516.8,764.3l9.9-0.4c1.1,0,2-1,1.9-2.2l-1.7-17c-0.1-1-1-1.8-2-1.8l-9.4,0.4c-1.1,0-2,1-1.9,2.1l1.1,17
		C514.9,763.5,515.8,764.4,516.8,764.3z"/>
	<path class="st33" d="M508.9,747.1l1.7,21.2c0.1,0.9,0.9,1.6,1.8,1.5l1.9-0.2c0.8-0.1,1.4-0.8,1.4-1.7l-1-21.3
		c0-0.9-0.9-1.6-1.8-1.5l-2.6,0.4C509.4,745.5,508.8,746.2,508.9,747.1z"/>
	<path class="st33" d="M526.4,746.1l1.7,21.2c0.1,0.9,0.9,1.6,1.8,1.5l1.9-0.2c0.8-0.1,1.4-0.8,1.4-1.7l-1-21.3
		c0-0.9-0.9-1.6-1.8-1.5l-2.6,0.4C526.9,744.5,526.3,745.2,526.4,746.1z"/>
	<path d="M332.8,782.2l9.9-0.4c1.1,0,2-1,1.9-2.2l-1.7-17c-0.1-1-1-1.8-2-1.8l-9.4,0.4c-1.1,0-2,1-1.9,2.1l1.1,17
		C330.9,781.4,331.8,782.2,332.8,782.2z"/>
	<path class="st33" d="M324.9,765l1.7,21.2c0.1,0.9,0.9,1.6,1.8,1.5l1.9-0.2c0.8-0.1,1.4-0.8,1.4-1.7l-1-21.3c0-0.9-0.9-1.6-1.8-1.5
		l-2.6,0.4C325.4,763.4,324.8,764.1,324.9,765z"/>
	<path class="st33" d="M342.4,764l1.7,21.2c0.1,0.9,0.9,1.6,1.8,1.5l1.9-0.2c0.8-0.1,1.4-0.8,1.4-1.7l-1-21.3c0-0.9-0.9-1.6-1.8-1.5
		l-2.6,0.4C342.9,762.4,342.3,763.1,342.4,764z"/>
	<path class="st34" d="M483.8,373.9l-12.4,3.3c-0.2,0-0.3,0.2-0.3,0.3l-2.9,8.3c-0.1,0.2-0.2,0.3-0.3,0.3L310.6,427
		c-0.5,0.1-0.5,0.8-0.1,0.9l38,17.2c0.1,0.1,0.3,0.1,0.4,0l131-48.6c0.2-0.1,0.3-0.2,0.3-0.4l4.2-21.7
		C484.5,374.1,484.1,373.8,483.8,373.9z"/>
	<path class="st35" d="M348.9,417.1c-2.5,9.6,6.3,19.8,25.7,12.7c28.2-10.3,106.9-40.3,106.9-40.3l-1.6,7.1l-131.4,48.6l-38-17.2
		L348.9,417.1z"/>
	<path class="st34" d="M268.3,433.2c-0.2-1.4,0.6-2.6,2-3c12.4-3.1,69.6-17.3,72.9-18c3.6-0.8,3.6,1.4,0,5.2
		c-5.8,6-2.2,28.8,13.8,27.6c17.9-1.3,124.3-11.1,138.6-12.5c1-0.1,1.9,0.4,2.5,1.2l4,6.6l-229.3,21.4L268.3,433.2z"/>
	<polygon class="st36" points="496.1,497.8 517.7,516.6 365.8,529.2 370.9,501.8 	"/>
	<path class="st37" d="M491.9,451.2l4.2,46.5c0,0-75.7,8.8-85.3,10.1s-30.6,0.5-45,21.3l-11.1-67.8l138.5-14.8L491.9,451.2z"/>
	<path class="st38" d="M362.3,493.8c0,0-6.6-32.4-5.3-32.4s134.7-10.1,134.7-10.1l1.3,14.3c0,0-77.3,5.1-100,10.4
		S366.5,485.4,362.3,493.8z"/>
	<path class="st39" d="M520.6,440.3l0.5,6.1c0.1,1.1-0.7,2-1.8,2.1l-157.9,15.7c-1.2,0.1-2.1,1.2-2,2.4l6.2,62.6l-86.6,9l-6.5-76.8
		l245.8-22.9C519.6,438.4,520.5,439.2,520.6,440.3z"/>
	<circle class="st40" cx="290.4" cy="467.4" r="2.5"/>
	<circle class="st41" cx="298.7" cy="466.7" r="2.5"/>
	<circle class="st42" cx="290.9" cy="474" r="2.5"/>
	<circle class="st43" cx="299.2" cy="473.2" r="2.5"/>
	<path class="st44" d="M323.7,466l-15.6,1c-0.6,0-1.1-0.4-1.1-1l-0.1-2c0-0.6,0.4-1.1,1-1.1l15.6-1c0.6,0,1.1,0.4,1.1,1l0.1,2
		C324.7,465.5,324.3,466,323.7,466z"/>
	<path class="st44" d="M324.1,473.1l-15.6,1c-0.6,0-1.1-0.4-1.1-1l-0.1-2c0-0.6,0.4-1.1,1-1.1l15.6-1c0.6,0,1.1,0.4,1.1,1l0.1,2
		C325.1,472.6,324.7,473.1,324.1,473.1z"/>
	<path class="st45" d="M344.3,464.7l-15.6,1c-0.6,0-1.1-0.4-1.1-1l-0.1-2c0-0.6,0.4-1.1,1-1.1l15.6-1c0.6,0,1.1,0.4,1.1,1l0.1,2
		C345.4,464.2,344.9,464.7,344.3,464.7z"/>
	<path class="st46" d="M344.8,471.8l-15.6,1c-0.6,0-1.1-0.4-1.1-1l-0.1-2c0-0.6,0.4-1.1,1-1.1l15.6-1c0.6,0,1.1,0.4,1.1,1l0.1,2
		C345.8,471.3,345.4,471.8,344.8,471.8z"/>
	<path class="st47" d="M353.2,521.6l-63.1,6.1c-0.9,0.1-1.7-0.6-1.8-1.5l-4.2-42.1c-0.1-0.9,0.6-1.7,1.5-1.8l63.5-6.4
		c0.9-0.1,1.7,0.6,1.8,1.5l3.7,42.4C354.8,520.7,354.1,521.5,353.2,521.6z"/>
	<path class="st48" d="M351.5,520.6l-59.9,5.8c-0.9,0.1-1.6-0.5-1.7-1.4l-4-40c-0.1-0.9,0.5-1.6,1.4-1.7l60.3-6.1
		c0.9-0.1,1.7,0.6,1.7,1.4l3.5,40.2C353,519.8,352.4,520.5,351.5,520.6z"/>
	<path class="st1" d="M380.4,513.4c0.1-0.2,0.3-0.3,0.5-0.3c4-0.4,44.2-4.5,79-10.1c30.4-4.9,37.9-5.2,39.6-5.2
		c0.3,0,0.5,0.2,0.6,0.4c0.6,1.4,2.6,6.1,4.6,9.4c0.2,0.4,0,0.9-0.5,1c-7.4,0.8-51.6,5.4-66,6.8c-15.2,1.5-49.9,5-60.2,5.7
		c-0.5,0-0.8-0.4-0.7-0.9C377.7,518.7,378.8,515.8,380.4,513.4z"/>
	<path class="st49" d="M279.1,538l247.9-25.1c2.6-0.3,4.9,1.7,5,4.3l11.4,222.9c0.1,2-1.4,3.8-3.4,4l-223.9,22.5
		c-2,0.2-3.9-1.2-4.2-3.3L279.1,538z"/>
	<path class="st50" d="M324.9,533.4L324.9,533.4l-45.8,4.6L312,763.4c0.3,2,2.1,3.5,4.2,3.3l73.4-7.4l0,0
		C313.9,663.9,324.9,533.4,324.9,533.4z"/>
	<polygon class="st51" points="282.6,561.8 533.2,539.1 533.2,541.8 282.9,563.9 	"/>
	<polygon class="st51" points="292.8,631.6 536.6,604.9 536.7,607.4 293.2,634.4 	"/>
	<polygon class="st51" points="297.1,661.4 538.3,638.4 538.4,640.1 297.5,663.8 	"/>
	<polygon class="st51" points="540.2,674.2 540.1,672 301.5,691.4 301.8,693.7 427.8,683.4 434.4,754.8 436.6,754.5 429.9,683.2 	
		"/>
	<circle class="st52" cx="315.7" cy="597.4" r="9.2"/>
	<path class="st52" d="M443.4,630l-43.5,4.4c-1.2,0.1-2.2-0.7-2.4-1.9l-0.2-2.1c-0.1-1.2,0.7-2.2,1.9-2.4l43.5-4.4
		c1.2-0.1,2.2,0.7,2.4,1.9l0.2,2.1C445.4,628.9,444.6,629.9,443.4,630z"/>
	<path class="st52" d="M446.4,663.2l-43.5,4.4c-1.2,0.1-2.2-0.7-2.4-1.9l-0.2-2.1c-0.1-1.2,0.7-2.2,1.9-2.4l43.5-4.4
		c1.2-0.1,2.2,0.7,2.4,1.9l0.2,2.1C448.4,662.1,447.6,663.1,446.4,663.2z"/>
	<path class="st52" d="M508.4,690.8l-43.5,4.4c-1.2,0.1-2.2-0.7-2.4-1.9l-0.2-2.1c-0.1-1.2,0.7-2.2,1.9-2.4l43.5-4.4
		c1.2-0.1,2.2,0.7,2.4,1.9l0.2,2.1C510.4,689.7,509.6,690.7,508.4,690.8z"/>
	<path class="st52" d="M390.6,701.1l-43.5,4.4c-1.2,0.1-2.2-0.7-2.4-1.9l-0.2-2.1c-0.1-1.2,0.7-2.2,1.9-2.4l43.5-4.4
		c1.2-0.1,2.2,0.7,2.4,1.9l0.2,2.1C392.6,699.9,391.8,701,390.6,701.1z"/>
	<path class="st53" d="M533.9,552.4l2,38.8l-27.3,1.6c-2.2,0.1-4-1.5-4.2-3.6l-2.5-30.1c-0.2-2.2,1.5-4.1,3.7-4.3L533.9,552.4z"/>
	<path class="st54" d="M299.4,394.1c-2.8,0.7,1.3,13.2,3.1,12.8S301.9,393.5,299.4,394.1z"/>
	<path class="st54" d="M329.3,390.7c-2.4-1.6-8.7,10-7.2,11C323.6,402.7,331.5,392.1,329.3,390.7z"/>
	<path class="st54" d="M273.4,403c-2.2,1.9,7,11.3,8.4,10.1C283.2,411.9,275.3,401.3,273.4,403z"/>
	<g>
		<g>
			<g>
				<path class="st1" d="M292.2,510.2l1.8-1.1c0.3,0.6,0.8,1,1.3,1.2c0.5,0.2,1.1,0.3,1.7,0.3c0.8-0.1,1.3-0.3,1.7-0.7
					c0.4-0.4,0.5-0.9,0.5-1.5c-0.1-0.6-0.3-1-0.8-1.3c-0.4-0.3-1.1-0.5-2-0.6c-1.4-0.2-2.5-0.5-3.1-1.1c-0.7-0.5-1.1-1.3-1.2-2.3
					c-0.1-1.2,0.2-2.2,1-3s1.8-1.2,3-1.3c0.9-0.1,1.8,0,2.5,0.4s1.4,0.9,1.9,1.6l-1.8,1.1c-0.3-0.5-0.7-0.8-1.1-1
					c-0.4-0.2-0.9-0.3-1.4-0.2c-0.7,0.1-1.2,0.3-1.6,0.6c-0.3,0.3-0.5,0.8-0.4,1.3c0.1,0.5,0.3,0.9,0.6,1.2c0.4,0.3,1,0.4,2,0.6
					c1.4,0.2,2.5,0.6,3.2,1.1c0.7,0.6,1.1,1.4,1.2,2.5c0.1,1.2-0.2,2.2-0.9,3c-0.7,0.8-1.8,1.3-3.2,1.5c-1.1,0.1-2.1,0-3-0.4
					C293.4,511.6,292.7,511,292.2,510.2z"/>
				<path class="st1" d="M314.7,507.5c-0.4,1-1,1.8-1.8,2.5c-0.9,0.7-1.9,1.1-3.2,1.2c-2,0.2-3.6-0.2-4.9-1.3
					c-1.3-1.1-2.1-2.6-2.3-4.6c-0.2-2.1,0.2-3.9,1.3-5.3c1.1-1.4,2.6-2.2,4.4-2.4c1.3-0.1,2.4,0.1,3.4,0.5c1,0.5,1.7,1.2,2.3,2.2
					l-1.8,0.9c-0.4-0.7-0.9-1.2-1.5-1.5s-1.3-0.4-2.1-0.3c-1.2,0.1-2.2,0.7-2.9,1.7c-0.7,1-1,2.2-0.8,3.7c0.1,1.5,0.6,2.6,1.5,3.3
					s1.9,1.1,3.2,1c0.8-0.1,1.5-0.3,2-0.8c0.5-0.4,0.9-1,1.2-1.7L314.7,507.5z"/>
				<path class="st1" d="M316.4,508l1.6-1.1c0.3,0.5,0.7,0.9,1.1,1.1c0.4,0.2,1,0.3,1.6,0.3c0.7-0.1,1.2-0.3,1.6-0.8
					c0.4-0.5,0.5-1.1,0.4-1.8c-0.1-0.8-0.4-1.4-1-1.8c-0.6-0.3-1.4-0.5-2.4-0.4c-0.3,0-0.7,0.1-1.2,0.2c-0.4,0.1-0.8,0.1-1.2,0.2
					l-0.2-7l6.5-0.7l0.2,1.8l-4.8,0.5l0.1,3.3c0.2,0,0.4-0.1,0.6-0.1c0.2,0,0.4-0.1,0.6-0.1c1.4-0.1,2.6,0.1,3.4,0.8
					c0.9,0.7,1.3,1.6,1.5,2.8c0.1,1.3-0.2,2.4-0.9,3.3c-0.7,0.9-1.8,1.4-3.1,1.5c-1,0.1-1.9,0-2.7-0.4
					C317.5,509.3,316.9,508.8,316.4,508z"/>
				<path class="st1" d="M333.4,495.2l0.9,8.6l1.3-0.1l0.2,1.8l-1.3,0.1l0.3,3l-2.1,0.2l-0.3-3l-5.9,0.6l-0.2-1.8
					c0.5-0.7,1-1.4,1.4-2.2c0.5-0.8,1-1.6,1.4-2.4c0.4-0.8,0.8-1.6,1.2-2.4c0.4-0.8,0.7-1.6,0.9-2.3L333.4,495.2z M328.4,504.4
					l3.8-0.4l-0.6-5.7c-0.3,0.7-0.6,1.3-0.8,1.8c-0.3,0.6-0.6,1.1-0.8,1.6c-0.3,0.5-0.5,1-0.8,1.4S328.6,504,328.4,504.4z"/>
				<path class="st1" d="M337.9,508.1l-0.1-0.8c-0.1-0.6,0-1.2,0.1-1.7c0.1-0.5,0.3-1,0.6-1.4c0.3-0.4,0.6-0.9,1-1.3
					c0.4-0.4,0.8-0.8,1.3-1.3c0.4-0.4,0.7-0.7,1-1c0.3-0.3,0.5-0.6,0.7-0.9c0.2-0.3,0.3-0.6,0.4-0.9c0.1-0.3,0.1-0.6,0.1-1
					c-0.1-0.7-0.3-1.1-0.7-1.5c-0.4-0.3-0.9-0.4-1.5-0.4c-0.6,0.1-1.1,0.3-1.5,0.7c-0.4,0.4-0.7,0.9-0.9,1.5l-1.8-0.6
					c0.4-1,0.9-1.8,1.6-2.4c0.7-0.6,1.6-0.9,2.6-1c1.1-0.1,2.1,0.1,2.9,0.7c0.8,0.6,1.3,1.5,1.4,2.7c0,0.5,0,1-0.1,1.4
					c-0.1,0.5-0.3,0.9-0.5,1.3c-0.2,0.4-0.5,0.8-0.8,1.2c-0.3,0.4-0.7,0.8-1.2,1.2c-0.4,0.4-0.8,0.7-1.1,1c-0.3,0.3-0.6,0.6-0.8,0.8
					c-0.2,0.3-0.3,0.5-0.4,0.8c-0.1,0.2-0.1,0.5-0.1,0.8l6-0.6l0.2,1.8L337.9,508.1z"/>
			</g>
		</g>
	</g>
	<path class="st37" d="M329.3,481.9h15.4c0.4,0,0.8,0.3,0.9,0.7c0.7,2.2,2.6,9.7,3.2,24.2C348.8,506.8,343.1,486.3,329.3,481.9z"/>
</g>
</svg>
